<svg width="23" height="23" viewBox="0 0 23 23" fill="none" xmlns="http://www.w3.org/2000/svg">
    <path d="M20.4748 0.516934C20.8402 0.49751 21.2345 0.477425 21.5646 0.551114C21.7503 0.592554 21.8735 0.660844 21.9797 0.823575C22.048 1.19678 22.1091 1.56593 22.1232 1.94565C22.1532 2.75097 22.1456 3.56278 22.1379 4.3724C22.1344 4.73944 22.1301 5.10634 22.1301 5.47201V12.4456C22.1303 12.6746 22.1366 13.0601 22.1447 13.5296C22.1731 15.1727 22.2193 17.844 22.0715 18.433C21.9654 18.8551 21.7499 19.0494 21.384 19.265C21.0573 19.3065 20.7167 19.3142 20.3791 19.3216C20.2023 19.3255 20.0257 19.3295 19.8527 19.3382C18.2244 19.421 16.5046 19.5874 15.009 20.2787C14.6085 20.4637 14.2066 20.6817 13.8547 20.9496C13.6744 21.0868 13.4727 21.2776 13.258 21.4808C12.7224 21.9879 12.1035 22.5732 11.5197 22.6058C10.8467 22.6429 10.2082 22.0677 9.61933 21.5365C9.33912 21.2837 9.06989 21.041 8.81366 20.8792C8.19234 20.487 7.48995 20.1845 6.79316 19.9564C5.64371 19.5805 4.42572 19.3884 3.21991 19.3167C3.03797 19.3058 2.85072 19.3063 2.6623 19.307C2.31237 19.3082 1.95812 19.3085 1.62812 19.2357C1.34054 19.1718 1.15488 19.0258 0.938663 18.8343C0.7806 18.4585 0.731578 17.9943 0.712101 17.5892C0.677229 16.8644 0.686399 16.1304 0.695499 15.3997C0.69957 15.0757 0.703119 14.7521 0.703312 14.43L0.708194 8.26205L0.703312 3.59506C0.703184 3.39139 0.694701 3.16966 0.685734 2.94076C0.661559 2.32081 0.634868 1.64521 0.769718 1.11654C0.843878 0.826137 1.012 0.697438 1.25507 0.542325C3.93077 0.36887 6.85328 0.924823 9.20429 2.23275C9.98521 2.66719 10.6895 3.1983 11.4006 3.73568C11.8001 3.43774 12.2029 3.13995 12.6144 2.85873C14.8277 1.34639 17.4634 0.599089 20.133 0.532559C20.2419 0.529839 20.3569 0.5232 20.4748 0.516934ZM20.1672 2.61264C19.8431 2.61531 19.4998 2.59447 19.1789 2.63705C16.9828 2.8356 14.1653 3.63967 12.674 5.389C12.6109 5.46368 12.5501 5.54031 12.4914 5.6185L12.4875 19.3529C12.7313 19.1756 12.9732 18.9927 13.2209 18.8206C15.2725 17.5952 17.8387 17.3843 20.1769 17.2162C20.1771 12.3512 20.2425 7.47669 20.1672 2.61264ZM2.66718 2.61557C2.61685 4.64774 2.62726 6.6875 2.63788 8.72397C2.64227 9.55907 2.64654 10.3941 2.64667 11.2279C2.6468 11.8404 2.63887 12.4574 2.63105 13.0755V13.0804C2.6138 14.4484 2.59714 15.8237 2.66523 17.1761C5.3673 17.4087 8.08045 17.6757 10.3312 19.3275C10.3179 14.7696 10.3436 10.2119 10.4074 5.65463C8.6381 3.78662 5.86883 2.68339 3.31562 2.61166C3.09951 2.60703 2.88315 2.60853 2.66718 2.61557Z" fill="#010101" />
    <path d="M20.4748 0.516934L20.4921 0.842284L20.4921 0.842284L20.4748 0.516934ZM21.5646 0.551114L21.4937 0.869098L21.4937 0.8691L21.5646 0.551114ZM21.9797 0.823575L22.3002 0.764903L22.2884 0.70043L22.2525 0.645537L21.9797 0.823575ZM22.1232 1.94565L21.7976 1.95772L21.7977 1.95776L22.1232 1.94565ZM22.1379 4.3724L22.4637 4.37551L22.4637 4.3755L22.1379 4.3724ZM22.1301 12.4456L21.8043 12.4456L21.8043 12.446L22.1301 12.4456ZM22.1447 13.5296L22.4705 13.524L22.4705 13.524L22.1447 13.5296ZM22.0715 18.433L22.3875 18.5123L22.3875 18.5123L22.0715 18.433ZM21.384 19.265L21.425 19.5882L21.4916 19.5797L21.5494 19.5457L21.384 19.265ZM20.3791 19.3216L20.3719 18.9959L20.3719 18.9959L20.3791 19.3216ZM19.8527 19.3382L19.8363 19.0128L19.8362 19.0128L19.8527 19.3382ZM15.009 20.2787L15.1457 20.5744L15.1457 20.5744L15.009 20.2787ZM13.8547 20.9496L13.6574 20.6903L13.6574 20.6903L13.8547 20.9496ZM13.258 21.4808L13.034 21.2442L13.034 21.2442L13.258 21.4808ZM11.5197 22.6058L11.5376 22.9311L11.5379 22.9311L11.5197 22.6058ZM9.61933 21.5365L9.83758 21.2946L9.83756 21.2945L9.61933 21.5365ZM8.81366 20.8792L8.9876 20.6037L8.9876 20.6037L8.81366 20.8792ZM6.79316 19.9564L6.8945 19.6467L6.89443 19.6467L6.79316 19.9564ZM3.21991 19.3167L3.20035 19.642L3.20058 19.642L3.21991 19.3167ZM2.6623 19.307L2.6612 18.9812L2.66119 18.9812L2.6623 19.307ZM1.62812 19.2357L1.55745 19.5537L1.5579 19.5538L1.62812 19.2357ZM0.938663 18.8343L0.63834 18.9606L0.667104 19.029L0.722642 19.0782L0.938663 18.8343ZM0.712101 17.5892L1.03753 17.5736L1.03753 17.5735L0.712101 17.5892ZM0.695499 15.3997L0.369716 15.3957L0.369716 15.3957L0.695499 15.3997ZM0.703312 14.43L0.377503 14.4298L0.377503 14.4298L0.703312 14.43ZM0.708194 8.26205L1.034 8.26231L1.034 8.26171L0.708194 8.26205ZM0.703312 3.59506L0.377503 3.59526L0.377503 3.5954L0.703312 3.59506ZM0.685734 2.94076L0.360172 2.95346L0.360175 2.95352L0.685734 2.94076ZM0.769718 1.11654L0.45404 1.03593L0.454018 1.03602L0.769718 1.11654ZM1.25507 0.542325L1.23399 0.217199L1.15041 0.222617L1.0798 0.267673L1.25507 0.542325ZM9.20429 2.23275L9.04589 2.51747L9.0459 2.51747L9.20429 2.23275ZM11.4006 3.73568L11.2041 3.99561L11.3993 4.14309L11.5953 3.99686L11.4006 3.73568ZM12.6144 2.85873L12.4306 2.58973L12.4306 2.58973L12.6144 2.85873ZM20.133 0.532559L20.1411 0.858267L20.1411 0.858266L20.133 0.532559ZM20.1672 2.61264L20.4929 2.60759L20.4879 2.28417L20.1645 2.28684L20.1672 2.61264ZM19.1789 2.63705L19.2083 2.96182L19.2218 2.96003L19.1789 2.63705ZM12.674 5.389L12.4261 5.17763L12.4251 5.17874L12.674 5.389ZM12.4914 5.6185L12.2309 5.42279L12.1656 5.5097L12.1656 5.6184L12.4914 5.6185ZM12.4875 19.3529L12.1617 19.3528L12.1615 19.9926L12.6791 19.6164L12.4875 19.3529ZM13.2209 18.8206L13.0538 18.5409L13.0442 18.5467L13.035 18.553L13.2209 18.8206ZM20.1769 17.2162L20.2003 17.5411L20.5027 17.5194L20.5028 17.2162L20.1769 17.2162ZM2.66718 2.61557L2.65657 2.28993L2.34909 2.29995L2.34147 2.6075L2.66718 2.61557ZM2.63788 8.72397L2.31208 8.72567L2.31208 8.72568L2.63788 8.72397ZM2.64667 11.2279L2.32086 11.2279L2.32086 11.2279L2.64667 11.2279ZM2.63105 13.0755L2.30524 13.0714V13.0755H2.63105ZM2.63105 13.0804L2.95685 13.0845V13.0804H2.63105ZM2.66523 17.1761L2.33983 17.1925L2.35412 17.4763L2.63728 17.5007L2.66523 17.1761ZM10.3312 19.3275L10.1385 19.5901L10.6589 19.9721L10.657 19.3265L10.3312 19.3275ZM10.4074 5.65463L10.7332 5.65919L10.735 5.52675L10.644 5.43058L10.4074 5.65463ZM3.31562 2.61166L3.32477 2.28597L3.32259 2.28593L3.31562 2.61166ZM20.4748 0.516934L20.4921 0.842284C20.8689 0.822258 21.2155 0.807017 21.4937 0.869098L21.5646 0.551114L21.6356 0.233131C21.2535 0.147834 20.8116 0.172762 20.4575 0.191585L20.4748 0.516934ZM21.5646 0.551114L21.4937 0.8691C21.5652 0.885066 21.6031 0.901595 21.6277 0.917137C21.6497 0.931051 21.6752 0.953101 21.7068 1.00161L21.9797 0.823575L22.2525 0.645537C22.178 0.531318 22.0888 0.437858 21.9763 0.366584C21.8663 0.296939 21.7497 0.258602 21.6356 0.233128L21.5646 0.551114ZM21.9797 0.823575L21.6592 0.882247C21.7273 1.254 21.7845 1.60329 21.7976 1.95772L22.1232 1.94565L22.4488 1.93357C22.4338 1.52858 22.3688 1.13956 22.3002 0.764903L21.9797 0.823575ZM22.1232 1.94565L21.7977 1.95776C21.8273 2.75422 21.8198 3.55842 21.8121 4.3693L22.1379 4.3724L22.4637 4.3755C22.4714 3.56715 22.4791 2.74773 22.4488 1.93353L22.1232 1.94565ZM22.1379 4.3724L21.8121 4.3693C21.8086 4.73529 21.8043 5.10434 21.8043 5.47201H22.1301H22.4559C22.4559 5.10833 22.4602 4.74359 22.4637 4.37551L22.1379 4.3724ZM22.1301 5.47201H21.8043V12.4456H22.1301H22.4559V5.47201H22.1301ZM22.1301 12.4456L21.8043 12.446C21.8045 12.6782 21.8108 13.0668 21.819 13.5353L22.1447 13.5296L22.4705 13.524C22.4623 13.0534 22.4561 12.671 22.4559 12.4453L22.1301 12.4456ZM22.1447 13.5296L21.819 13.5353C21.8332 14.3575 21.8517 15.4326 21.8484 16.3754C21.8467 16.847 21.8395 17.2824 21.8238 17.6349C21.8076 17.9984 21.7832 18.2433 21.7555 18.3536L22.0715 18.433L22.3875 18.5123C22.4337 18.3282 22.459 18.0183 22.4748 17.6639C22.4911 17.2985 22.4983 16.853 22.5 16.3777C22.5034 15.4269 22.4847 14.3448 22.4705 13.524L22.1447 13.5296ZM22.0715 18.433L21.7555 18.3536C21.7132 18.5218 21.6544 18.6272 21.5806 18.7112C21.5019 18.8006 21.3918 18.8822 21.2186 18.9843L21.384 19.265L21.5494 19.5457C21.742 19.4322 21.9227 19.3088 22.0698 19.1416C22.2217 18.969 22.3237 18.7663 22.3875 18.5123L22.0715 18.433ZM21.384 19.265L21.3429 18.9418C21.036 18.9807 20.7126 18.9884 20.3719 18.9959L20.3791 19.3216L20.3863 19.6474C20.7209 19.64 21.0786 19.6322 21.425 19.5882L21.384 19.265ZM20.3791 19.3216L20.3719 18.9959C20.1958 18.9998 20.0146 19.0038 19.8363 19.0128L19.8527 19.3382L19.8691 19.6636C20.0367 19.6552 20.2088 19.6513 20.3863 19.6474L20.3791 19.3216ZM19.8527 19.3382L19.8362 19.0128C18.2057 19.0957 16.4299 19.263 14.8723 19.9829L15.009 20.2787L15.1457 20.5744C16.5793 19.9118 18.2431 19.7463 19.8693 19.6636L19.8527 19.3382ZM15.009 20.2787L14.8723 19.9829C14.4603 20.1733 14.0352 20.4028 13.6574 20.6903L13.8547 20.9496L14.052 21.2088C14.378 20.9607 14.7567 20.7542 15.1457 20.5744L15.009 20.2787ZM13.8547 20.9496L13.6574 20.6903C13.4601 20.8404 13.2446 21.0449 13.034 21.2442L13.258 21.4808L13.482 21.7174C13.7008 21.5103 13.8886 21.3332 14.052 21.2088L13.8547 20.9496ZM13.258 21.4808L13.034 21.2442C12.7629 21.5008 12.4899 21.7585 12.2156 21.9575C11.9363 22.1602 11.6984 22.2695 11.5015 22.2805L11.5197 22.6058L11.5379 22.9311C11.9248 22.9095 12.2883 22.7099 12.5983 22.4849C12.9132 22.2564 13.2174 21.9679 13.482 21.7174L13.258 21.4808ZM11.5197 22.6058L11.5018 22.2805C11.2645 22.2936 11.0067 22.1997 10.7151 22.0108C10.4235 21.822 10.1362 21.564 9.83758 21.2946L9.61933 21.5365L9.40107 21.7784C9.69125 22.0402 10.0176 22.3354 10.3608 22.5577C10.7039 22.78 11.102 22.9551 11.5376 22.9311L11.5197 22.6058ZM9.61933 21.5365L9.83756 21.2945C9.56369 21.0475 9.27232 20.7835 8.9876 20.6037L8.81366 20.8792L8.63972 21.1547C8.86745 21.2985 9.11456 21.5199 9.40109 21.7784L9.61933 21.5365ZM8.81366 20.8792L8.9876 20.6037C8.33776 20.1935 7.60932 19.8807 6.8945 19.6467L6.79316 19.9564L6.69181 20.266C7.37058 20.4882 8.04691 20.7805 8.63973 21.1547L8.81366 20.8792ZM6.79316 19.9564L6.89443 19.6467C5.71226 19.2601 4.46557 19.0644 3.23925 18.9915L3.21991 19.3167L3.20058 19.642C4.38587 19.7124 5.57516 19.9009 6.69188 20.2661L6.79316 19.9564ZM3.21991 19.3167L3.23947 18.9915C3.04547 18.9799 2.84783 18.9805 2.6612 18.9812L2.6623 19.307L2.6634 19.6328C2.85361 19.6321 3.03047 19.6317 3.20035 19.642L3.21991 19.3167ZM2.6623 19.307L2.66119 18.9812C2.30468 18.9824 1.9871 18.9813 1.69834 18.9175L1.62812 19.2357L1.5579 19.5538C1.92915 19.6358 2.32006 19.6339 2.6634 19.6328L2.6623 19.307ZM1.62812 19.2357L1.69878 18.9176C1.49687 18.8728 1.3637 18.7755 1.15468 18.5904L0.938663 18.8343L0.722642 19.0782C0.946057 19.2761 1.18421 19.4708 1.55745 19.5537L1.62812 19.2357ZM0.938663 18.8343L1.23899 18.708C1.10458 18.3885 1.05676 17.9734 1.03753 17.5736L0.712101 17.5892L0.386668 17.6048C0.406397 18.0152 0.456619 18.5286 0.63834 18.9606L0.938663 18.8343ZM0.712101 17.5892L1.03753 17.5735C1.00322 16.8602 1.01216 16.1362 1.02128 15.4038L0.695499 15.3997L0.369716 15.3957C0.360638 16.1246 0.351243 16.8685 0.386669 17.6049L0.712101 17.5892ZM0.695499 15.3997L1.02128 15.4038C1.02535 15.0796 1.02893 14.7544 1.02912 14.4302L0.703312 14.43L0.377503 14.4298C0.377312 14.7498 0.373785 15.0717 0.369716 15.3957L0.695499 15.3997ZM0.703312 14.43L1.02912 14.4303L1.034 8.26231L0.708194 8.26205L0.382386 8.26179L0.377503 14.4298L0.703312 14.43ZM0.708194 8.26205L1.034 8.26171L1.02912 3.59472L0.703312 3.59506L0.377503 3.5954L0.382386 8.26239L0.708194 8.26205ZM0.703312 3.59506L1.02912 3.59486C1.02899 3.38382 1.02021 3.15572 1.01129 2.92801L0.685734 2.94076L0.360175 2.95352C0.369189 3.1836 0.377381 3.39897 0.377503 3.59526L0.703312 3.59506ZM0.685734 2.94076L1.01129 2.92807C0.986535 2.29311 0.964733 1.67021 1.08542 1.19707L0.769718 1.11654L0.454018 1.03602C0.305003 1.62022 0.336583 2.3485 0.360172 2.95346L0.685734 2.94076ZM0.769718 1.11654L1.0854 1.19716C1.12715 1.03365 1.2014 0.963067 1.43033 0.816977L1.25507 0.542325L1.0798 0.267673C0.822592 0.431809 0.560605 0.618627 0.45404 1.03593L0.769718 1.11654ZM1.25507 0.542325L1.27615 0.867451C3.89763 0.69751 6.75638 1.24375 9.04589 2.51747L9.20429 2.23275L9.36268 1.94804C6.95017 0.605895 3.96391 0.0402288 1.23399 0.217199L1.25507 0.542325ZM9.20429 2.23275L9.0459 2.51747C9.80376 2.93908 10.4904 3.45621 11.2041 3.99561L11.4006 3.73568L11.597 3.47576C10.8886 2.94039 10.1667 2.3953 9.36268 1.94804L9.20429 2.23275ZM11.4006 3.73568L11.5953 3.99686C11.9947 3.69902 12.3928 3.4048 12.7983 3.12773L12.6144 2.85873L12.4306 2.58973C12.013 2.8751 11.6055 3.17646 11.2058 3.4745L11.4006 3.73568ZM12.6144 2.85873L12.7983 3.12773C14.953 1.65536 17.5258 0.923444 20.1411 0.858267L20.133 0.532559L20.1249 0.206852C17.401 0.274735 14.7023 1.03741 12.4306 2.58973L12.6144 2.85873ZM20.133 0.532559L20.1411 0.858266C20.2558 0.855401 20.3768 0.848411 20.4921 0.842284L20.4748 0.516934L20.4575 0.191585C20.337 0.197988 20.228 0.204277 20.1249 0.206853L20.133 0.532559ZM20.1672 2.61264L20.1645 2.28684C19.8722 2.28925 19.4835 2.26797 19.136 2.31407L19.1789 2.63705L19.2218 2.96003C19.5161 2.92097 19.8139 2.94137 20.1699 2.93843L20.1672 2.61264ZM19.1789 2.63705L19.1496 2.31257C18.0271 2.41405 16.7437 2.6702 15.546 3.12707C14.3509 3.58297 13.2194 4.24702 12.4261 5.17764L12.674 5.389L12.922 5.60037C13.6199 4.78166 14.6428 4.16901 15.7783 3.7359C16.9111 3.30376 18.1346 3.0586 19.2082 2.96154L19.1789 2.63705ZM12.674 5.389L12.4251 5.17874C12.3577 5.25854 12.2931 5.34005 12.2309 5.42279L12.4914 5.6185L12.7519 5.8142C12.8072 5.74057 12.8641 5.66883 12.9229 5.59927L12.674 5.389ZM12.4914 5.6185L12.1656 5.6184L12.1617 19.3528L12.4875 19.3529L12.8133 19.353L12.8172 5.61859L12.4914 5.6185ZM12.4875 19.3529L12.6791 19.6164C12.9299 19.4341 13.1626 19.2578 13.4067 19.0882L13.2209 18.8206L13.035 18.553C12.7838 18.7275 12.5328 18.9172 12.2959 19.0893L12.4875 19.3529ZM13.2209 18.8206L13.388 19.1004C15.3622 17.9211 17.8482 17.7102 20.2003 17.5411L20.1769 17.2162L20.1536 16.8912C17.8292 17.0583 15.1828 17.2693 13.0538 18.5409L13.2209 18.8206ZM20.1769 17.2162L20.5028 17.2162C20.5029 12.3573 20.5683 7.47479 20.4929 2.60759L20.1672 2.61264L19.8414 2.61768C19.9167 7.47859 19.8513 12.3451 19.8511 17.2161L20.1769 17.2162ZM2.66718 2.61557L2.34147 2.6075C2.291 4.64536 2.30146 6.68998 2.31208 8.72567L2.63788 8.72397L2.96369 8.72227C2.95306 6.68501 2.9427 4.65012 2.99289 2.62363L2.66718 2.61557ZM2.63788 8.72397L2.31208 8.72568C2.31647 9.56088 2.32074 10.3951 2.32086 11.2279L2.64667 11.2279L2.97248 11.2278C2.97235 10.3931 2.96808 9.55727 2.96369 8.72225L2.63788 8.72397ZM2.64667 11.2279L2.32086 11.2279C2.32099 11.838 2.31309 12.4528 2.30526 13.0714L2.63105 13.0755L2.95683 13.0797C2.96465 12.4619 2.97261 11.8428 2.97248 11.2278L2.64667 11.2279ZM2.63105 13.0755H2.30524V13.0804H2.63105H2.95685V13.0755H2.63105ZM2.63105 13.0804L2.30526 13.0763C2.28804 14.4426 2.27114 15.8282 2.33983 17.1925L2.66523 17.1761L2.99062 17.1597C2.92314 15.8193 2.93956 14.4542 2.95683 13.0845L2.63105 13.0804ZM2.66523 17.1761L2.63728 17.5007C5.35194 17.7344 7.97223 18.0004 10.1385 19.5901L10.3312 19.3275L10.524 19.0648C8.18867 17.351 5.38266 17.083 2.69317 16.8515L2.66523 17.1761ZM10.3312 19.3275L10.657 19.3265C10.6438 14.7705 10.6694 10.2146 10.7332 5.65919L10.4074 5.65463L10.0816 5.65007C10.0178 10.2091 9.99213 14.7687 10.0054 19.3284L10.3312 19.3275ZM10.4074 5.65463L10.644 5.43058C8.80829 3.49251 5.9535 2.35983 3.32477 2.28598L3.31562 2.61166L3.30647 2.93734C5.78417 3.00695 8.46791 4.08072 10.1709 5.87868L10.4074 5.65463ZM3.31562 2.61166L3.32259 2.28593C3.10034 2.28117 2.87811 2.28271 2.65657 2.28993L2.66718 2.61557L2.67779 2.9412C2.8882 2.93434 3.09868 2.9329 3.30864 2.93739L3.31562 2.61166Z" fill="#010101" />
</svg>