<svg width="84" height="22" viewBox="0 0 84 22" fill="none" xmlns="http://www.w3.org/2000/svg">
<g clip-path="url(#clip0_270_207)">
<path d="M1.97411 11.8066C1.9733 11.8708 1.97249 11.9351 1.97168 11.9993C1.97244 11.9363 1.9733 11.8733 1.97411 11.8103V11.8066Z" fill="#FEFEFD"/>
<path d="M15.3574 2.38811C15.6313 2.37355 15.9264 2.35832 16.1738 2.4135C16.3131 2.44456 16.4057 2.49561 16.4853 2.6176C16.5366 2.89756 16.5822 3.17456 16.5927 3.4594C16.6152 4.06327 16.6102 4.67165 16.6045 5.27874C16.6018 5.55408 16.5986 5.82961 16.5986 6.10393V11.3344C16.5988 11.5061 16.6032 11.795 16.6094 12.1469C16.6306 13.3791 16.6655 15.3827 16.5547 15.8246C16.4752 16.1411 16.3134 16.287 16.039 16.4487C15.794 16.4798 15.5384 16.486 15.2851 16.4916C15.1526 16.4946 15.0203 16.4968 14.8906 16.5033C13.6693 16.5654 12.3796 16.6909 11.2578 17.2094C10.9575 17.3482 10.6565 17.5115 10.3926 17.7123C10.2573 17.8153 10.1054 17.9583 9.94431 18.1108C9.54261 18.4911 9.07843 18.9301 8.6406 18.9545C8.13585 18.9823 7.65742 18.5502 7.2158 18.1518C7.00573 17.9623 6.8034 17.7809 6.6113 17.6596C6.14531 17.3654 5.61828 17.1383 5.09568 16.9672C4.23364 16.6853 3.3203 16.5405 2.41599 16.4867C2.27945 16.4785 2.13846 16.4794 1.99705 16.4799C1.7347 16.4808 1.46907 16.4818 1.22165 16.4272C1.00615 16.3793 0.867093 16.2699 0.705053 16.1264C0.586388 15.8445 0.549743 15.4958 0.535132 15.1918C0.508981 14.6483 0.515612 14.0982 0.522436 13.5502C0.525489 13.3072 0.52815 13.0643 0.528296 12.8227L0.532202 8.19671L0.528296 4.69573C0.528192 4.54303 0.521346 4.37709 0.514624 4.2055C0.496492 3.7405 0.476943 3.23384 0.5781 2.83733C0.63374 2.61945 0.759948 2.52306 0.942358 2.40667C2.94915 2.27657 5.14101 2.69328 6.90427 3.67425C7.48996 4.00007 8.01747 4.39914 8.55076 4.80218C8.85053 4.57862 9.15309 4.35498 9.46189 4.14397C11.1218 3.00971 13.0984 2.44973 15.1006 2.39983C15.1823 2.39779 15.2689 2.39281 15.3574 2.38811ZM15.126 3.9594C14.8829 3.96141 14.6254 3.94602 14.3847 3.97796C12.7376 4.12687 10.6243 4.72944 9.50583 6.04143C9.45847 6.09749 9.41321 6.15559 9.36912 6.21428L9.36619 16.5151C9.54906 16.3821 9.73023 16.2447 9.91599 16.1157C11.4548 15.1964 13.3799 15.0386 15.1338 14.9125C15.1339 11.2638 15.1824 7.60745 15.126 3.9594ZM2.00095 3.96135C1.9632 5.48557 1.9715 7.01595 1.97947 8.54339C1.98276 9.16946 1.98621 9.79526 1.9863 10.4203C1.9864 10.8797 1.98045 11.3425 1.97458 11.8061V11.81C1.96165 12.836 1.94891 13.8679 1.99998 14.8823C4.02641 15.0567 6.06099 15.2568 7.749 16.4955C7.73902 13.077 7.75777 9.65869 7.80564 6.24065C6.47861 4.83972 4.40215 4.01218 2.48728 3.95843C2.32524 3.95496 2.16289 3.95608 2.00095 3.96135Z" fill="#010101"/>
<path d="M15.3574 2.38811L15.3704 2.63213L15.3704 2.63212L15.3574 2.38811ZM16.1738 2.4135L16.1206 2.652L16.1206 2.65201L16.1738 2.4135ZM16.4853 2.6176L16.7257 2.5736L16.7168 2.52521L16.6899 2.48401L16.4853 2.6176ZM16.5927 3.4594L16.3486 3.46845L16.3486 3.46849L16.5927 3.4594ZM16.6045 5.27874L16.8488 5.28107L16.8488 5.28106L16.6045 5.27874ZM16.5986 11.3344H16.3543L16.3543 11.3347L16.5986 11.3344ZM16.6094 12.1469L16.8537 12.1427L16.8537 12.1427L16.6094 12.1469ZM16.5547 15.8246L16.7917 15.8842L16.7917 15.8841L16.5547 15.8246ZM16.039 16.4487L16.0698 16.6911L16.1197 16.6847L16.1631 16.6592L16.039 16.4487ZM15.2851 16.4916L15.2797 16.2473L15.2797 16.2473L15.2851 16.4916ZM14.8906 16.5033L14.8783 16.2593L14.8782 16.2593L14.8906 16.5033ZM11.2578 17.2094L11.3603 17.4312L11.3603 17.4312L11.2578 17.2094ZM10.3926 17.7123L10.5405 17.9068L10.5405 17.9068L10.3926 17.7123ZM9.94431 18.1108L9.77633 17.9333L9.77632 17.9333L9.94431 18.1108ZM8.6406 18.9545L8.65405 19.1985L8.65422 19.1985L8.6406 18.9545ZM7.2158 18.1518L7.37949 17.9704L7.37947 17.9703L7.2158 18.1518ZM6.6113 17.6596L6.74179 17.453L6.74175 17.453L6.6113 17.6596ZM5.09568 16.9672L5.17169 16.735L5.17163 16.735L5.09568 16.9672ZM2.41599 16.4867L2.40132 16.7307L2.40149 16.7307L2.41599 16.4867ZM1.99705 16.4799L1.99622 16.2356L1.99622 16.2356L1.99705 16.4799ZM1.22165 16.4272L1.16862 16.6657L1.16899 16.6658L1.22165 16.4272ZM0.705053 16.1264L0.479835 16.2212L0.501411 16.2725L0.543045 16.3093L0.705053 16.1264ZM0.535132 15.1918L0.779206 15.1801L0.779206 15.1801L0.535132 15.1918ZM0.522436 13.5502L0.278099 13.5472L0.278099 13.5472L0.522436 13.5502ZM0.528296 12.8227L0.283939 12.8225L0.283939 12.8225L0.528296 12.8227ZM0.532202 8.19671L0.776559 8.19691L0.776558 8.19643L0.532202 8.19671ZM0.528296 4.69573L0.283939 4.6959L0.283939 4.696L0.528296 4.69573ZM0.514624 4.2055L0.270453 4.21502L0.270455 4.21506L0.514624 4.2055ZM0.5781 2.83733L0.341342 2.77687L0.341328 2.77693L0.5781 2.83733ZM0.942358 2.40667L0.926551 2.16282L0.86387 2.16689L0.810919 2.20067L0.942358 2.40667ZM6.90427 3.67425L6.78548 3.88778L6.78548 3.88778L6.90427 3.67425ZM8.55076 4.80218L8.40342 4.99712L8.54978 5.10773L8.69684 4.99806L8.55076 4.80218ZM9.46189 4.14397L9.59975 4.34573L9.59975 4.34572L9.46189 4.14397ZM15.1006 2.39983L15.1066 2.64411L15.1067 2.64411L15.1006 2.39983ZM15.126 3.9594L15.3703 3.95562L15.3665 3.71305L15.1239 3.71505L15.126 3.9594ZM14.3847 3.97796L14.4068 4.22153L14.4169 4.22019L14.3847 3.97796ZM9.50583 6.04143L9.31988 5.88291L9.31918 5.88373L9.50583 6.04143ZM9.36912 6.21428L9.17375 6.06751L9.12478 6.13269L9.12476 6.21422L9.36912 6.21428ZM9.36619 16.5151L9.12183 16.515L9.12169 16.9949L9.50986 16.7127L9.36619 16.5151ZM9.91599 16.1157L9.79067 15.9059L9.78348 15.9102L9.7766 15.915L9.91599 16.1157ZM15.1338 14.9125L15.1513 15.1563L15.3781 15.1399L15.3781 14.9125L15.1338 14.9125ZM2.00095 3.96135L1.99299 3.71713L1.76238 3.72464L1.75667 3.9553L2.00095 3.96135ZM1.97947 8.54339L1.73511 8.54466L1.73511 8.54467L1.97947 8.54339ZM1.9863 10.4203L1.74195 10.4204L1.74195 10.4204L1.9863 10.4203ZM1.97458 11.8061L1.73023 11.803V11.8061H1.97458ZM1.97458 11.81L2.21894 11.8131V11.81H1.97458ZM1.99998 14.8823L1.75593 14.8945L1.76665 15.1074L1.97902 15.1257L1.99998 14.8823ZM7.749 16.4955L7.60443 16.6925L7.99477 16.979L7.99335 16.4948L7.749 16.4955ZM7.80564 6.24065L8.04997 6.24407L8.05136 6.14474L7.98304 6.07261L7.80564 6.24065ZM2.48728 3.95843L2.49414 3.71416L2.49251 3.71412L2.48728 3.95843ZM15.3574 2.38811L15.3704 2.63212C15.6529 2.61711 15.9122 2.60552 16.1206 2.652L16.1738 2.4135L16.227 2.17501C15.9405 2.11112 15.6097 2.13 15.3444 2.1441L15.3574 2.38811ZM16.1738 2.4135L16.1206 2.65201C16.1745 2.664 16.203 2.6764 16.2215 2.68807C16.238 2.69848 16.2571 2.71496 16.2807 2.7512L16.4853 2.6176L16.6899 2.48401C16.6339 2.39826 16.5669 2.32821 16.4824 2.27484C16.3999 2.22272 16.3125 2.19406 16.227 2.175L16.1738 2.4135ZM16.4853 2.6176L16.245 2.66161C16.296 2.94027 16.3387 3.20248 16.3486 3.46845L16.5927 3.4594L16.8369 3.45035C16.8257 3.14665 16.7772 2.85485 16.7257 2.5736L16.4853 2.6176ZM16.5927 3.4594L16.3486 3.46849C16.3708 4.06581 16.3659 4.66866 16.3601 5.27641L16.6045 5.27874L16.8488 5.28106C16.8546 4.67463 16.8597 4.06074 16.8369 3.45031L16.5927 3.4594ZM16.6045 5.27874L16.3601 5.27641C16.3575 5.55097 16.3543 5.82811 16.3543 6.10393H16.5986H16.843C16.843 5.83111 16.8462 5.55719 16.8488 5.28107L16.6045 5.27874ZM16.5986 6.10393H16.3543V11.3344H16.5986H16.843V6.10393H16.5986ZM16.5986 11.3344L16.3543 11.3347C16.3544 11.5087 16.3589 11.7998 16.365 12.1511L16.6094 12.1469L16.8537 12.1427C16.8476 11.7902 16.8432 11.5034 16.843 11.3341L16.5986 11.3344ZM16.6094 12.1469L16.365 12.1511C16.3757 12.7677 16.3897 13.5741 16.3872 14.2813C16.386 14.635 16.3806 14.9616 16.3689 15.226C16.3567 15.4986 16.3384 15.6824 16.3177 15.7652L16.5547 15.8246L16.7917 15.8841C16.8263 15.7459 16.8453 15.5135 16.8571 15.2477C16.8693 14.9736 16.8747 14.6394 16.8759 14.283C16.8784 13.5698 16.8643 12.7582 16.8537 12.1427L16.6094 12.1469ZM16.5547 15.8246L16.3177 15.7651C16.286 15.8912 16.2419 15.9703 16.1865 16.0333C16.1274 16.1004 16.0448 16.1616 15.915 16.2381L16.039 16.4487L16.1631 16.6592C16.3076 16.5741 16.443 16.4815 16.5534 16.3561C16.6673 16.2267 16.7438 16.0746 16.7917 15.8842L16.5547 15.8246ZM16.039 16.4487L16.0083 16.2062C15.7779 16.2355 15.5348 16.2417 15.2797 16.2473L15.2851 16.4916L15.2905 16.7359C15.5419 16.7304 15.8101 16.724 16.0698 16.6911L16.039 16.4487ZM15.2851 16.4916L15.2797 16.2473C15.1491 16.2502 15.0124 16.2525 14.8783 16.2593L14.8906 16.5033L14.9029 16.7474C15.0282 16.7411 15.156 16.7389 15.2905 16.7359L15.2851 16.4916ZM14.8906 16.5033L14.8782 16.2593C13.6551 16.3215 12.3235 16.4477 11.1553 16.9876L11.2578 17.2094L11.3603 17.4312C12.4356 16.9342 13.6835 16.8094 14.903 16.7474L14.8906 16.5033ZM11.2578 17.2094L11.1553 16.9876C10.8463 17.1304 10.5279 17.3023 10.2446 17.5179L10.3926 17.7123L10.5405 17.9068C10.785 17.7207 11.0687 17.566 11.3603 17.4312L11.2578 17.2094ZM10.3926 17.7123L10.2446 17.5179C10.0967 17.6304 9.93476 17.7833 9.77633 17.9333L9.94431 18.1108L10.1123 18.2882C10.2761 18.1332 10.4178 18.0002 10.5405 17.9068L10.3926 17.7123ZM9.94431 18.1108L9.77632 17.9333C9.57302 18.1258 9.36825 18.319 9.1625 18.4683C8.95302 18.6203 8.77461 18.7023 8.62698 18.7105L8.6406 18.9545L8.65422 19.1985C8.94442 19.1823 9.21701 19.0326 9.44951 18.8639C9.68573 18.6925 9.9139 18.4761 10.1123 18.2882L9.94431 18.1108ZM8.6406 18.9545L8.62715 18.7105C8.4493 18.7203 8.25616 18.6499 8.03752 18.508C7.81893 18.3662 7.6036 18.1726 7.37949 17.9704L7.2158 18.1518L7.0521 18.3332C7.26962 18.5295 7.51431 18.7511 7.77152 18.918C8.02869 19.0848 8.32714 19.2165 8.65405 19.1985L8.6406 18.9545ZM7.2158 18.1518L7.37947 17.9703C7.1736 17.7846 6.95506 17.5877 6.74179 17.453L6.6113 17.6596L6.48081 17.8662C6.65174 17.9742 6.83786 18.1399 7.05212 18.3332L7.2158 18.1518ZM6.6113 17.6596L6.74175 17.453C6.2544 17.1453 5.70784 16.9105 5.17169 16.735L5.09568 16.9672L5.01967 17.1994C5.52871 17.3661 6.03622 17.5855 6.48085 17.8662L6.6113 17.6596ZM5.09568 16.9672L5.17163 16.735C4.28516 16.4451 3.35034 16.2975 2.43049 16.2428L2.41599 16.4867L2.40149 16.7307C3.29026 16.7835 4.18211 16.9255 5.01973 17.1995L5.09568 16.9672ZM2.41599 16.4867L2.43067 16.2428C2.2848 16.2341 2.13539 16.2351 1.99622 16.2356L1.99705 16.4799L1.99787 16.7243C2.14152 16.7238 2.2741 16.723 2.40132 16.7307L2.41599 16.4867ZM1.99705 16.4799L1.99622 16.2356C1.72825 16.2365 1.49058 16.2363 1.27432 16.1886L1.22165 16.4272L1.16899 16.6658C1.44755 16.7273 1.74115 16.7251 1.99787 16.7243L1.99705 16.4799ZM1.22165 16.4272L1.27469 16.1886C1.12341 16.155 1.02371 16.0822 0.867062 15.9435L0.705053 16.1264L0.543045 16.3093C0.710473 16.4576 0.888884 16.6035 1.16862 16.6657L1.22165 16.4272ZM0.705053 16.1264L0.930272 16.0316C0.8294 15.792 0.793635 15.4802 0.779206 15.1801L0.535132 15.1918L0.291057 15.2036C0.30585 15.5113 0.343376 15.897 0.479835 16.2212L0.705053 16.1264ZM0.535132 15.1918L0.779206 15.1801C0.753469 14.6451 0.759935 14.1024 0.766774 13.5533L0.522436 13.5502L0.278099 13.5472C0.27129 14.0939 0.264493 14.6514 0.291057 15.2036L0.535132 15.1918ZM0.522436 13.5502L0.766773 13.5533C0.769828 13.3101 0.772505 13.066 0.772652 12.8228L0.528296 12.8227L0.283939 12.8225C0.283794 13.0626 0.281151 13.3042 0.278099 13.5472L0.522436 13.5502ZM0.528296 12.8227L0.772652 12.8229L0.776558 8.19691L0.532202 8.19671L0.287846 8.1965L0.283939 12.8225L0.528296 12.8227ZM0.532202 8.19671L0.776558 8.19643L0.772652 4.69546L0.528296 4.69573L0.283939 4.696L0.287846 8.19698L0.532202 8.19671ZM0.528296 4.69573L0.772652 4.69556C0.772545 4.53713 0.765451 4.36588 0.758793 4.19593L0.514624 4.2055L0.270455 4.21506C0.277242 4.38831 0.28384 4.54894 0.283939 4.6959L0.528296 4.69573ZM0.514624 4.2055L0.758795 4.19597C0.740234 3.71998 0.724325 3.25266 0.814873 2.89774L0.5781 2.83733L0.341328 2.77693C0.229562 3.21502 0.25275 3.76102 0.270453 4.21502L0.514624 4.2055ZM0.5781 2.83733L0.814859 2.89779C0.846166 2.7752 0.901813 2.7224 1.0738 2.61266L0.942358 2.40667L0.810919 2.20067C0.618083 2.32372 0.421314 2.4637 0.341342 2.77687L0.5781 2.83733ZM0.942358 2.40667L0.958166 2.65051C2.92432 2.52305 5.06835 2.93249 6.78548 3.88778L6.90427 3.67425L7.02307 3.46071C5.21366 2.45408 2.97398 2.0301 0.926551 2.16282L0.942358 2.40667ZM6.90427 3.67425L6.78548 3.88778C7.35376 4.20392 7.86785 4.59235 8.40342 4.99712L8.55076 4.80218L8.69809 4.60723C8.1671 4.20593 7.62615 3.79621 7.02306 3.46071L6.90427 3.67425ZM8.55076 4.80218L8.69684 4.99806C8.9965 4.77459 9.29551 4.55362 9.59975 4.34573L9.46189 4.14397L9.32403 3.94222C9.01068 4.15633 8.70457 4.38265 8.40468 4.60629L8.55076 4.80218ZM9.46189 4.14397L9.59975 4.34572C11.2158 3.24146 13.1451 2.693 15.1066 2.64411L15.1006 2.39983L15.0945 2.15555C13.0516 2.20646 11.0278 2.77796 9.32403 3.94222L9.46189 4.14397ZM15.1006 2.39983L15.1067 2.64411C15.1927 2.64196 15.2838 2.63673 15.3704 2.63213L15.3574 2.38811L15.3444 2.1441C15.2541 2.1489 15.1718 2.15362 15.0945 2.15555L15.1006 2.39983ZM15.126 3.9594L15.1239 3.71505C14.9044 3.71686 14.6132 3.70114 14.3526 3.73572L14.3847 3.97796L14.4169 4.22019C14.6376 4.19089 14.8613 4.20595 15.128 4.20375L15.126 3.9594ZM14.3847 3.97796L14.3627 3.73459C13.5209 3.8107 12.5583 4.00269 11.66 4.34521C10.7636 4.68701 9.9149 5.18492 9.31988 5.88291L9.50583 6.04143L9.69179 6.19996C10.2152 5.58594 10.9825 5.12657 11.8341 4.80186C12.6838 4.47788 13.6015 4.29412 14.4067 4.22132L14.3847 3.97796ZM9.50583 6.04143L9.31918 5.88373C9.26776 5.9446 9.21945 6.00668 9.17375 6.06751L9.36912 6.21428L9.56448 6.36105C9.60697 6.30451 9.64919 6.25038 9.69249 6.19913L9.50583 6.04143ZM9.36912 6.21428L9.12476 6.21422L9.12183 16.515L9.36619 16.5151L9.61054 16.5151L9.61347 6.21435L9.36912 6.21428ZM9.36619 16.5151L9.50986 16.7127C9.69847 16.5756 9.8722 16.4436 10.0554 16.3163L9.91599 16.1157L9.7766 15.915C9.58827 16.0458 9.39965 16.1887 9.22251 16.3174L9.36619 16.5151ZM9.91599 16.1157L10.0413 16.3254C11.5221 15.4409 13.387 15.2831 15.1513 15.1563L15.1338 14.9125L15.1162 14.6688C13.3728 14.7941 11.3875 14.9519 9.79067 15.9059L9.91599 16.1157ZM15.1338 14.9125L15.3781 14.9125C15.3782 11.2683 15.4268 7.60603 15.3703 3.95562L15.126 3.9594L14.8816 3.96319C14.9381 7.60886 14.8895 11.2593 14.8894 14.9125L15.1338 14.9125ZM2.00095 3.96135L1.75667 3.9553C1.71881 5.48381 1.72715 7.01789 1.73511 8.54466L1.97947 8.54339L2.22382 8.54211C2.21585 7.01401 2.20759 5.48733 2.24523 3.96741L2.00095 3.96135ZM1.97947 8.54339L1.73511 8.54467C1.73841 9.17091 1.74185 9.79605 1.74195 10.4204L1.9863 10.4203L2.23066 10.4203C2.23056 9.79448 2.22711 9.16801 2.22382 8.5421L1.97947 8.54339ZM1.9863 10.4203L1.74195 10.4204C1.74204 10.8779 1.73612 11.3391 1.73025 11.803L1.97458 11.8061L2.21892 11.8092C2.22479 11.346 2.23076 10.8815 2.23066 10.4203L1.9863 10.4203ZM1.97458 11.8061H1.73023V11.81H1.97458H2.21894V11.8061H1.97458ZM1.97458 11.81L1.73025 11.8069C1.71733 12.8316 1.70441 13.8712 1.75593 14.8945L1.99998 14.8823L2.24402 14.87C2.19341 13.8646 2.20597 12.8404 2.21892 11.8131L1.97458 11.81ZM1.99998 14.8823L1.97902 15.1257C4.0149 15.301 5.97983 15.5003 7.60443 16.6925L7.749 16.4955L7.89357 16.2985C6.14215 15.0133 4.03792 14.8124 2.02094 14.6388L1.99998 14.8823ZM7.749 16.4955L7.99335 16.4948C7.98338 13.0777 8.00212 9.66072 8.04997 6.24407L7.80564 6.24065L7.56131 6.23723C7.51342 9.65665 7.49466 13.0764 7.50464 16.4962L7.749 16.4955ZM7.80564 6.24065L7.98304 6.07261C6.60627 4.61916 4.46567 3.76951 2.49414 3.71417L2.48728 3.95843L2.48042 4.20269C4.33862 4.25485 6.35096 5.06028 7.62824 6.4087L7.80564 6.24065ZM2.48728 3.95843L2.49251 3.71412C2.32587 3.71056 2.15911 3.71171 1.99299 3.71713L2.00095 3.96135L2.00891 4.20558C2.16667 4.20044 2.32462 4.19936 2.48205 4.20273L2.48728 3.95843Z" fill="#010101"/>
<path d="M22.8605 3.51289C24.8179 3.47887 28.1145 3.42127 29.2003 3.83711C30.0294 4.15478 30.7347 4.77978 31.0959 5.59687C31.4518 6.40241 31.4771 7.46817 31.1544 8.28828C30.8097 9.16395 30.1773 9.53407 29.3595 9.88691C29.4226 9.90991 29.4869 9.93217 29.5509 9.95429C29.7261 10.0148 29.9026 10.0761 30.0675 10.1574C30.8227 10.5368 31.3999 11.1964 31.675 11.9953C32.0073 12.9751 31.8796 14.0727 31.4298 14.9904C31.0944 15.5683 30.6242 16.0156 30.0421 16.341C29.53 16.6274 29.0235 16.7418 28.4455 16.8186C27.5668 16.9354 22.4695 17.0121 21.8293 16.7941C21.743 16.7649 21.6569 16.732 21.6173 16.6467C21.523 16.4423 21.5101 16.129 21.5002 15.8879L21.4972 15.8215C21.4358 14.4513 21.456 13.0627 21.4757 11.6799C21.4845 11.0648 21.4927 10.4507 21.4943 9.84004C21.4958 9.2516 21.4883 8.65904 21.4806 8.06562C21.4657 6.90865 21.4512 5.74728 21.5041 4.60273C21.5156 4.35466 21.5367 4.07798 21.6261 3.84492C21.6945 3.66697 21.7818 3.60557 21.9494 3.52656C22.195 3.52488 22.5058 3.51906 22.8605 3.51289ZM27.7541 10.9504C27.0406 10.7803 24.7885 10.8981 23.9308 10.8986L23.9318 14.8088C24.9382 14.8108 27.1291 14.9378 27.9914 14.717C28.3099 14.6354 28.5626 14.5075 28.8048 14.2853C29.1928 13.8279 29.3941 13.3665 29.3361 12.7531C29.2844 12.2079 29.0514 11.7441 28.6271 11.3937C28.3737 11.1817 28.0748 11.03 27.7541 10.9504ZM24.6418 5.49629C24.3702 5.50504 24.1263 5.51258 23.9298 5.51289L23.9318 8.99336C24.1603 8.994 24.4386 9.00121 24.7423 9.00898C25.7463 9.03468 27.0269 9.06768 27.6955 8.89668C28.0069 8.81697 28.2648 8.69102 28.5138 8.48847C28.8406 8.09267 29.0187 7.64064 28.9767 7.12031C28.9399 6.66283 28.7216 6.21516 28.3566 5.93183C27.6693 5.39865 25.8674 5.45674 24.6418 5.49629Z" fill="#010101"/>
<path d="M43.0544 11.2976C42.678 8.47245 40.0822 6.48779 37.2575 6.86542C34.4349 7.2428 32.4522 9.83606 32.8279 12.6586C33.2037 15.4814 35.7959 17.4656 38.6189 17.0917C41.444 16.7169 43.4302 14.1223 43.0544 11.2976ZM37.5878 9.0507C38.1611 9.02216 38.6668 9.03198 39.1753 9.34183C39.746 9.68969 40.101 10.284 40.2556 10.9223C40.4747 11.8273 40.4234 13.0735 39.9144 13.8784C39.5497 14.4551 39.0415 14.7102 38.3981 14.852C37.7807 14.914 37.1681 14.8559 36.6391 14.5011C36.0813 14.1267 35.7565 13.5158 35.6303 12.8688C35.451 11.95 35.5073 10.7561 36.0624 9.96943C36.4434 9.42955 36.9512 9.1634 37.5878 9.0507Z" fill="#010101"/>
<path d="M54.1245 11.2662C53.7345 8.44186 51.1248 6.47142 48.3015 6.86947C45.4894 7.26596 43.5287 9.86293 43.9172 12.6761C44.3058 15.4887 46.8974 17.4572 49.7114 17.0765C52.5367 16.6943 54.5145 14.0904 54.1245 11.2662ZM48.6176 9.05118C49.1753 9.00534 49.7148 9.02264 50.2162 9.30355C50.8115 9.63699 51.1751 10.2224 51.3447 10.8687C51.5881 11.7974 51.5401 12.9952 51.0314 13.8324C50.6712 14.4257 50.1576 14.7018 49.5008 14.8494C48.886 14.9291 48.2799 14.8606 47.7511 14.5132C47.1867 14.1422 46.8592 13.5382 46.7219 12.8897C46.5284 11.9733 46.591 10.7929 47.1256 9.99639C47.4882 9.45583 47.9931 9.17991 48.6176 9.05118Z" fill="#010101"/>
<path d="M56.1811 3.09575C56.2197 3.09213 56.2583 3.08935 56.2969 3.08798C56.6801 3.07454 57.5334 3.0003 57.7934 3.3511C57.9043 3.50055 57.9204 3.81279 57.9341 3.99703C57.9923 4.77536 57.9454 5.58945 57.9454 6.3711L57.9463 10.9737C58.4908 10.3266 59.1173 9.73413 59.6915 9.1116C60.2584 8.49676 60.8034 7.78969 61.4313 7.24203C61.5809 7.1116 61.6943 7.04249 61.8878 6.98971C62.289 6.88048 63.7425 6.79955 64.0484 7.01728C64.1266 7.07284 64.1931 7.18055 64.1872 7.27893C64.1598 7.71697 61.2657 10.5706 60.7613 11.0699C61.6894 12.4189 62.6253 13.7618 63.5695 15.0995C63.8045 15.4406 64.4726 16.1727 64.3866 16.5954C64.368 16.6873 64.2952 16.7679 64.2141 16.8124C63.7801 17.0514 62.1131 16.894 61.5926 16.7244C61.2207 16.3506 60.9177 15.81 60.6186 15.3756L58.8075 12.7351L57.9419 13.4872C57.9385 14.1797 58.1457 16.2171 57.7005 16.6814C57.5011 16.8896 57.2406 16.9057 56.9694 16.9082C56.555 16.9126 55.7535 16.9815 55.4505 16.6853C55.3728 15.8878 55.3987 15.0804 55.3982 14.2799L55.3967 10.8613L55.3972 6.17718C55.3972 5.34471 55.3674 4.49982 55.406 3.66857C55.4114 3.55675 55.4143 3.46023 55.4808 3.36459C55.6401 3.13406 55.9289 3.13001 56.1811 3.09575Z" fill="#010101"/>
<path d="M73.789 6.89941C74.3354 6.88753 75.4233 6.76667 75.9149 6.97032C76.0992 7.04661 76.1827 7.23471 76.2653 7.40693C76.6153 8.13644 76.8445 8.97692 77.126 9.73873C77.6161 11.0643 78.1439 12.3753 78.641 13.6977C78.9298 12.9515 80.9247 7.39066 81.2517 7.11327C81.412 6.9775 81.7159 6.94833 81.9158 6.94246C82.3366 6.93015 83.1225 6.83719 83.4411 7.13115C83.5217 7.32063 83.511 7.42423 83.4646 7.62734C83.3013 8.33661 82.9539 9.07354 82.6992 9.7573L81.0625 14.1562L79.9561 17.1549C79.7337 17.7599 79.5378 18.4075 79.2494 18.9832C79.0886 19.3038 78.8931 19.6043 78.6478 19.8668C78.0599 20.4967 77.2907 20.7675 76.4437 20.7968C76.0806 20.8095 75.458 20.8769 75.1779 20.6174C74.9991 20.2558 74.9839 19.4123 75.0993 19.0223C75.2117 18.6425 76.043 18.7149 76.3782 18.5262C76.9178 18.2227 77.0649 17.625 77.2041 17.0694C76.7707 15.7591 73.508 7.74698 73.5398 7.2939C73.5535 7.09714 73.6463 7.01279 73.789 6.89941Z" fill="#010101"/>
<path d="M68.4284 6.86067C68.7021 6.81893 69.0026 6.83032 69.2807 6.83315C70.3867 6.8442 71.6241 7.07731 72.4207 7.90925C72.7867 8.29172 73.0536 8.86952 73.0135 9.40837C73.0067 9.5002 72.9813 9.63206 72.9031 9.68738C72.5057 9.96815 71.4213 9.91307 70.9492 9.84958C70.5304 9.79314 70.5626 9.5131 70.3046 9.20658C70.0201 8.86927 69.6042 8.7035 69.1712 8.67208C68.6894 8.63709 68.08 8.79387 67.7212 9.13215C67.5629 9.28155 67.3958 9.66646 67.4217 9.88189C67.5331 10.8213 70.18 10.9421 70.9419 11.1339C71.5879 11.2966 72.2531 11.5385 72.7692 11.9735C73.2588 12.386 73.4802 12.948 73.5301 13.5765C73.5912 14.3511 73.3654 15.0929 72.8513 15.6794C71.9579 16.6984 70.6564 16.9979 69.3614 17.0927C68.3659 17.1265 67.2946 16.9901 66.3993 16.5302C65.7498 16.1964 65.1633 15.675 64.9468 14.9556C64.8579 14.6619 64.7987 14.3178 64.9551 14.0393C65.4077 13.6845 66.6441 13.8233 67.1934 13.8433C67.3787 14.1253 67.492 14.4561 67.7452 14.6897C68.1718 15.0832 68.8013 15.2019 69.3648 15.1741C69.8256 15.1511 70.3163 15.0201 70.6252 14.6541C70.7957 14.4522 70.8944 14.1932 70.869 13.9269C70.7669 12.8615 68.1425 12.8654 67.3303 12.6777C66.7438 12.5428 66.1456 12.3048 65.6706 11.9285C65.1702 11.5312 64.8505 10.9968 64.7899 10.3564C64.7225 9.57502 64.9634 8.79826 65.4614 8.19236C66.2136 7.28081 67.2951 6.97141 68.4284 6.86067Z" fill="#010101"/>
</g>
<defs>
<clipPath id="clip0_270_207">
<rect width="83" height="21" fill="white" transform="translate(0.5 0.937988)"/>
</clipPath>
</defs>
</svg>
