<svg width="83" height="22" viewBox="0 0 83 22" fill="none" xmlns="http://www.w3.org/2000/svg">
<g clip-path="url(#clip0_297_111)">
<path d="M1.47411 11.3066C1.4733 11.3708 1.47249 11.4351 1.47168 11.4993C1.47244 11.4363 1.4733 11.3733 1.47411 11.3103V11.3066Z" fill="#FEFEFD"/>
<path d="M14.8574 1.8886C15.1313 1.87404 15.4264 1.85881 15.6738 1.91399C15.8131 1.94505 15.9057 1.9961 15.9853 2.11809C16.0366 2.39805 16.0822 2.67505 16.0927 2.95989C16.1152 3.56376 16.1102 4.17213 16.1045 4.77923C16.1018 5.05457 16.0986 5.3301 16.0986 5.60442V10.8349C16.0988 11.0066 16.1032 11.2955 16.1094 11.6474C16.1306 12.8796 16.1655 14.8832 16.0547 15.3251C15.9752 15.6416 15.8134 15.7875 15.539 15.9491C15.294 15.9803 15.0384 15.9865 14.7851 15.9921C14.6526 15.995 14.5203 15.9973 14.3906 16.0038C13.1693 16.0659 11.8796 16.1914 10.7578 16.7099C10.4575 16.8487 10.1565 17.012 9.89255 17.2128C9.75725 17.3158 9.60543 17.4587 9.44431 17.6113C9.04261 17.9916 8.57843 18.4306 8.1406 18.455C7.63585 18.4828 7.15742 18.0507 6.7158 17.6523C6.50573 17.4628 6.3034 17.2814 6.1113 17.1601C5.64531 16.8659 5.11828 16.6388 4.59568 16.4677C3.73364 16.1858 2.8203 16.041 1.91599 15.9872C1.77945 15.979 1.63846 15.9799 1.49705 15.9804C1.2347 15.9813 0.969066 15.9823 0.721655 15.9277C0.506148 15.8797 0.367093 15.7704 0.205053 15.6269C0.086388 15.345 0.0497429 14.9962 0.0351315 14.6923C0.00898091 14.1488 0.0156122 13.5987 0.0224362 13.0507C0.0254892 12.8076 0.0281498 12.5648 0.0282956 12.3232L0.0322019 7.69719L0.0282956 4.19622C0.0281921 4.04352 0.0213463 3.87758 0.0146237 3.70598C-0.00350842 3.24099 -0.0230566 2.73433 0.0781003 2.33782C0.13374 2.11994 0.259948 2.02355 0.442358 1.90716C2.44915 1.77706 4.64101 2.19377 6.40427 3.17473C6.98996 3.50055 7.51747 3.89963 8.05076 4.30266C8.35053 4.07911 8.65309 3.85546 8.96189 3.64446C10.6218 2.5102 12.5984 1.95022 14.6006 1.90032C14.6823 1.89828 14.7689 1.8933 14.8574 1.8886ZM14.626 3.45989C14.3829 3.46189 14.1254 3.4465 13.8847 3.47844C12.2376 3.62736 10.1243 4.22992 9.00583 5.54192C8.95847 5.59798 8.91321 5.65608 8.86912 5.71477L8.86619 16.0156C9.04906 15.8826 9.23023 15.7452 9.41599 15.6161C10.9548 14.6969 12.8799 14.5391 14.6338 14.413C14.6339 10.7643 14.6824 7.10793 14.626 3.45989ZM1.50095 3.46184C1.4632 4.98606 1.4715 6.51644 1.47947 8.04387C1.48276 8.66995 1.48621 9.29575 1.4863 9.92083C1.4864 10.3802 1.48045 10.843 1.47458 11.3066V11.3105C1.46165 12.3365 1.44891 13.3684 1.49998 14.3827C3.52641 14.5572 5.56099 14.7573 7.249 15.996C7.23902 12.5775 7.25777 9.15918 7.30564 5.74114C5.97861 4.34021 3.90215 3.51267 1.98728 3.45891C1.82524 3.45544 1.66289 3.45656 1.50095 3.46184Z" fill="#010101"/>
<path d="M14.8574 1.8886L14.8704 2.13261L14.8704 2.13261L14.8574 1.8886ZM15.6738 1.91399L15.6206 2.15249L15.6206 2.15249L15.6738 1.91399ZM15.9853 2.11809L16.2257 2.07409L16.2168 2.02569L16.1899 1.9845L15.9853 2.11809ZM16.0927 2.95989L15.8486 2.96894L15.8486 2.96898L16.0927 2.95989ZM16.1045 4.77923L16.3488 4.78156L16.3488 4.78155L16.1045 4.77923ZM16.0986 10.8349H15.8543L15.8543 10.8352L16.0986 10.8349ZM16.1094 11.6474L16.3537 11.6432L16.3537 11.6432L16.1094 11.6474ZM16.0547 15.3251L16.2917 15.3847L16.2917 15.3846L16.0547 15.3251ZM15.539 15.9491L15.5698 16.1916L15.6197 16.1852L15.6631 16.1597L15.539 15.9491ZM14.7851 15.9921L14.7797 15.7478L14.7797 15.7478L14.7851 15.9921ZM14.3906 16.0038L14.3783 15.7598L14.3782 15.7598L14.3906 16.0038ZM10.7578 16.7099L10.8603 16.9317L10.8603 16.9317L10.7578 16.7099ZM9.89255 17.2128L10.0405 17.4073L10.0405 17.4073L9.89255 17.2128ZM9.44431 17.6113L9.27633 17.4338L9.27632 17.4338L9.44431 17.6113ZM8.1406 18.455L8.15405 18.699L8.15422 18.699L8.1406 18.455ZM6.7158 17.6523L6.87949 17.4708L6.87947 17.4708L6.7158 17.6523ZM6.1113 17.1601L6.24179 16.9535L6.24175 16.9535L6.1113 17.1601ZM4.59568 16.4677L4.67169 16.2355L4.67163 16.2355L4.59568 16.4677ZM1.91599 15.9872L1.90132 16.2311L1.90149 16.2312L1.91599 15.9872ZM1.49705 15.9804L1.49622 15.736L1.49622 15.736L1.49705 15.9804ZM0.721655 15.9277L0.668615 16.1662L0.66899 16.1663L0.721655 15.9277ZM0.205053 15.6269L-0.0201648 15.7217L0.00141085 15.7729L0.0430446 15.8098L0.205053 15.6269ZM0.0351315 14.6923L0.279206 14.6806L0.279206 14.6806L0.0351315 14.6923ZM0.0224362 13.0507L-0.221901 13.0476L-0.221901 13.0477L0.0224362 13.0507ZM0.0282956 12.3232L-0.216061 12.323L-0.216061 12.323L0.0282956 12.3232ZM0.0322019 7.69719L0.276559 7.6974L0.276558 7.69692L0.0322019 7.69719ZM0.0282956 4.19622L-0.216061 4.19638L-0.216061 4.19649L0.0282956 4.19622ZM0.0146237 3.70598L-0.229547 3.71551L-0.229545 3.71555L0.0146237 3.70598ZM0.0781003 2.33782L-0.158658 2.27736L-0.158672 2.27742L0.0781003 2.33782ZM0.442358 1.90716L0.426551 1.66331L0.36387 1.66737L0.310919 1.70116L0.442358 1.90716ZM6.40427 3.17473L6.28548 3.38827L6.28548 3.38827L6.40427 3.17473ZM8.05076 4.30266L7.90342 4.49761L8.04978 4.60822L8.19684 4.49855L8.05076 4.30266ZM8.96189 3.64446L9.09975 3.84621L9.09975 3.84621L8.96189 3.64446ZM14.6006 1.90032L14.6066 2.1446L14.6067 2.1446L14.6006 1.90032ZM14.626 3.45989L14.8703 3.45611L14.8665 3.21354L14.6239 3.21554L14.626 3.45989ZM13.8847 3.47844L13.9068 3.72202L13.9169 3.72068L13.8847 3.47844ZM9.00583 5.54192L8.81988 5.38339L8.81918 5.38422L9.00583 5.54192ZM8.86912 5.71477L8.67375 5.568L8.62478 5.63318L8.62476 5.7147L8.86912 5.71477ZM8.86619 16.0156L8.62183 16.0155L8.62169 16.4954L9.00986 16.2132L8.86619 16.0156ZM9.41599 15.6161L9.29067 15.4064L9.28348 15.4107L9.2766 15.4154L9.41599 15.6161ZM14.6338 14.413L14.6513 14.6567L14.8781 14.6404L14.8781 14.413L14.6338 14.413ZM1.50095 3.46184L1.49299 3.21762L1.26238 3.22513L1.25667 3.45579L1.50095 3.46184ZM1.47947 8.04387L1.23511 8.04515L1.23511 8.04516L1.47947 8.04387ZM1.4863 9.92083L1.24195 9.92087L1.24195 9.92088L1.4863 9.92083ZM1.47458 11.3066L1.23023 11.3035V11.3066H1.47458ZM1.47458 11.3105L1.71894 11.3136V11.3105H1.47458ZM1.49998 14.3827L1.25593 14.395L1.26665 14.6079L1.47902 14.6262L1.49998 14.3827ZM7.249 15.996L7.10443 16.193L7.49477 16.4795L7.49335 15.9953L7.249 15.996ZM7.30564 5.74114L7.54997 5.74456L7.55136 5.64522L7.48304 5.5731L7.30564 5.74114ZM1.98728 3.45891L1.99414 3.21465L1.99251 3.21461L1.98728 3.45891ZM14.8574 1.8886L14.8704 2.13261C15.1529 2.11759 15.4122 2.10601 15.6206 2.15249L15.6738 1.91399L15.727 1.67549C15.4405 1.6116 15.1097 1.63049 14.8444 1.64459L14.8574 1.8886ZM15.6738 1.91399L15.6206 2.15249C15.6745 2.16449 15.703 2.17689 15.7215 2.18855C15.738 2.19897 15.7571 2.21544 15.7807 2.25169L15.9853 2.11809L16.1899 1.9845C16.1339 1.89875 16.0669 1.8287 15.9824 1.77533C15.8999 1.72321 15.8125 1.69455 15.727 1.67549L15.6738 1.91399ZM15.9853 2.11809L15.745 2.1621C15.796 2.44076 15.8387 2.70297 15.8486 2.96894L16.0927 2.95989L16.3369 2.95084C16.3257 2.64713 16.2772 2.35534 16.2257 2.07409L15.9853 2.11809ZM16.0927 2.95989L15.8486 2.96898C15.8708 3.5663 15.8659 4.16915 15.8601 4.7769L16.1045 4.77923L16.3488 4.78155C16.3546 4.17512 16.3597 3.56123 16.3369 2.9508L16.0927 2.95989ZM16.1045 4.77923L15.8601 4.7769C15.8575 5.05146 15.8543 5.3286 15.8543 5.60442H16.0986H16.343C16.343 5.3316 16.3462 5.05768 16.3488 4.78156L16.1045 4.77923ZM16.0986 5.60442H15.8543V10.8349H16.0986H16.343V5.60442H16.0986ZM16.0986 10.8349L15.8543 10.8352C15.8544 11.0092 15.8589 11.3003 15.865 11.6516L16.1094 11.6474L16.3537 11.6432C16.3476 11.2907 16.3432 11.0039 16.343 10.8346L16.0986 10.8349ZM16.1094 11.6474L15.865 11.6516C15.8757 12.2682 15.8897 13.0746 15.8872 13.7817C15.886 14.1355 15.8806 14.4621 15.8689 14.7264C15.8567 14.9991 15.8384 15.1829 15.8177 15.2657L16.0547 15.3251L16.2917 15.3846C16.3263 15.2464 16.3453 15.014 16.3571 14.7482C16.3693 14.4741 16.3747 14.1399 16.3759 13.7834C16.3784 13.0703 16.3643 12.2587 16.3537 11.6432L16.1094 11.6474ZM16.0547 15.3251L15.8177 15.2656C15.786 15.3917 15.7419 15.4708 15.6865 15.5338C15.6274 15.6009 15.5448 15.6621 15.415 15.7386L15.539 15.9491L15.6631 16.1597C15.8076 16.0745 15.943 15.982 16.0534 15.8566C16.1673 15.7272 16.2438 15.5751 16.2917 15.3847L16.0547 15.3251ZM15.539 15.9491L15.5083 15.7067C15.2779 15.736 15.0348 15.7422 14.7797 15.7478L14.7851 15.9921L14.7905 16.2364C15.0419 16.2309 15.3101 16.2245 15.5698 16.1916L15.539 15.9491ZM14.7851 15.9921L14.7797 15.7478C14.6491 15.7507 14.5124 15.753 14.3783 15.7598L14.3906 16.0038L14.4029 16.2479C14.5282 16.2416 14.656 16.2394 14.7905 16.2364L14.7851 15.9921ZM14.3906 16.0038L14.3782 15.7598C13.1551 15.8219 11.8235 15.9481 10.6553 16.4881L10.7578 16.7099L10.8603 16.9317C11.9356 16.4347 13.1835 16.3098 14.403 16.2479L14.3906 16.0038ZM10.7578 16.7099L10.6553 16.4881C10.3463 16.6309 10.0279 16.8028 9.74457 17.0184L9.89255 17.2128L10.0405 17.4073C10.285 17.2212 10.5687 17.0665 10.8603 16.9317L10.7578 16.7099ZM9.89255 17.2128L9.7446 17.0183C9.59671 17.1309 9.43476 17.2838 9.27633 17.4338L9.44431 17.6113L9.61229 17.7887C9.77611 17.6337 9.91779 17.5007 10.0405 17.4073L9.89255 17.2128ZM9.44431 17.6113L9.27632 17.4338C9.07302 17.6263 8.86825 17.8195 8.6625 17.9688C8.45302 18.1208 8.27461 18.2028 8.12698 18.211L8.1406 18.455L8.15422 18.699C8.44442 18.6828 8.71701 18.5331 8.94951 18.3644C9.18573 18.193 9.4139 17.9765 9.61231 17.7887L9.44431 17.6113ZM8.1406 18.455L8.12715 18.211C7.9493 18.2208 7.75616 18.1504 7.53752 18.0085C7.31893 17.8667 7.1036 17.6731 6.87949 17.4708L6.7158 17.6523L6.5521 17.8337C6.76962 18.0299 7.01431 18.2516 7.27152 18.4185C7.52869 18.5853 7.82714 18.717 8.15405 18.699L8.1406 18.455ZM6.7158 17.6523L6.87947 17.4708C6.6736 17.2851 6.45506 17.0882 6.24179 16.9535L6.1113 17.1601L5.98081 17.3667C6.15174 17.4746 6.33786 17.6404 6.55212 17.8337L6.7158 17.6523ZM6.1113 17.1601L6.24175 16.9535C5.7544 16.6458 5.20784 16.411 4.67169 16.2355L4.59568 16.4677L4.51967 16.6999C5.02871 16.8665 5.53622 17.086 5.98085 17.3667L6.1113 17.1601ZM4.59568 16.4677L4.67163 16.2355C3.78516 15.9456 2.85034 15.798 1.93049 15.7433L1.91599 15.9872L1.90149 16.2312C2.79026 16.284 3.68211 16.426 4.51973 16.7L4.59568 16.4677ZM1.91599 15.9872L1.93067 15.7433C1.7848 15.7345 1.63539 15.7356 1.49622 15.736L1.49705 15.9804L1.49787 16.2248C1.64152 16.2243 1.7741 16.2235 1.90132 16.2311L1.91599 15.9872ZM1.49705 15.9804L1.49622 15.736C1.22825 15.737 0.990585 15.7368 0.77432 15.6891L0.721655 15.9277L0.66899 16.1663C0.947547 16.2278 1.24115 16.2256 1.49787 16.2248L1.49705 15.9804ZM0.721655 15.9277L0.774695 15.6891C0.623413 15.6555 0.523713 15.5827 0.367062 15.444L0.205053 15.6269L0.0430446 15.8098C0.210473 15.9581 0.388884 16.104 0.668615 16.1662L0.721655 15.9277ZM0.205053 15.6269L0.430272 15.5321C0.3294 15.2924 0.293635 14.9807 0.279206 14.6806L0.0351315 14.6923L-0.208943 14.704C-0.19415 15.0118 -0.156624 15.3975 -0.0201648 15.7217L0.205053 15.6269ZM0.0351315 14.6923L0.279206 14.6806C0.253469 14.1456 0.259935 13.6029 0.266774 13.0538L0.0224362 13.0507L-0.221901 13.0477C-0.22871 13.5944 -0.235507 14.1519 -0.208943 14.7041L0.0351315 14.6923ZM0.0224362 13.0507L0.266773 13.0538C0.269828 12.8106 0.272505 12.5665 0.272652 12.3233L0.0282956 12.3232L-0.216061 12.323C-0.216206 12.563 -0.218849 12.8047 -0.221901 13.0476L0.0224362 13.0507ZM0.0282956 12.3232L0.272652 12.3234L0.276558 7.6974L0.0322019 7.69719L-0.212154 7.69699L-0.216061 12.323L0.0282956 12.3232ZM0.0322019 7.69719L0.276558 7.69692L0.272652 4.19595L0.0282956 4.19622L-0.216061 4.19649L-0.212154 7.69747L0.0322019 7.69719ZM0.0282956 4.19622L0.272652 4.19605C0.272545 4.03762 0.265451 3.86637 0.258793 3.69642L0.0146237 3.70598L-0.229545 3.71555C-0.222758 3.8888 -0.21616 4.04943 -0.216061 4.19638L0.0282956 4.19622ZM0.0146237 3.70598L0.258795 3.69646C0.240234 3.22047 0.224325 2.75315 0.314873 2.39822L0.0781003 2.33782L-0.158672 2.27742C-0.270438 2.71551 -0.24725 3.26151 -0.229547 3.71551L0.0146237 3.70598ZM0.0781003 2.33782L0.314859 2.39828C0.346166 2.27568 0.401813 2.22289 0.573797 2.11315L0.442358 1.90716L0.310919 1.70116C0.118083 1.8242 -0.0786855 1.96419 -0.158658 2.27736L0.0781003 2.33782ZM0.442358 1.90716L0.458166 2.151C2.42432 2.02354 4.56835 2.43298 6.28548 3.38827L6.40427 3.17473L6.52307 2.9612C4.71366 1.95456 2.47398 1.53058 0.426551 1.66331L0.442358 1.90716ZM6.40427 3.17473L6.28548 3.38827C6.85376 3.70441 7.36785 4.09284 7.90342 4.49761L8.05076 4.30266L8.19809 4.10772C7.6671 3.70642 7.12615 3.2967 6.52306 2.9612L6.40427 3.17473ZM8.05076 4.30266L8.19684 4.49855C8.4965 4.27508 8.79551 4.05411 9.09975 3.84621L8.96189 3.64446L8.82403 3.44271C8.51068 3.65682 8.20457 3.88313 7.90468 4.10678L8.05076 4.30266ZM8.96189 3.64446L9.09975 3.84621C10.7158 2.74195 12.6451 2.19348 14.6066 2.1446L14.6006 1.90032L14.5945 1.65604C12.5516 1.70695 10.5278 2.27845 8.82403 3.44271L8.96189 3.64446ZM14.6006 1.90032L14.6067 2.1446C14.6927 2.14245 14.7838 2.13721 14.8704 2.13261L14.8574 1.8886L14.8444 1.64459C14.7541 1.64939 14.6718 1.65411 14.5945 1.65604L14.6006 1.90032ZM14.626 3.45989L14.6239 3.21554C14.4044 3.21735 14.1132 3.20163 13.8526 3.23621L13.8847 3.47844L13.9169 3.72068C14.1376 3.69138 14.3613 3.70644 14.628 3.70424L14.626 3.45989ZM13.8847 3.47844L13.8627 3.23508C13.0209 3.31119 12.0583 3.50317 11.16 3.8457C10.2636 4.1875 9.4149 4.68541 8.81988 5.3834L9.00583 5.54192L9.19179 5.70045C9.71523 5.08643 10.4825 4.62706 11.3341 4.30235C12.1838 3.97837 13.1015 3.79461 13.9067 3.72181L13.8847 3.47844ZM9.00583 5.54192L8.81918 5.38422C8.76776 5.44508 8.71945 5.50717 8.67375 5.568L8.86912 5.71477L9.06448 5.86154C9.10697 5.80499 9.14919 5.75087 9.19249 5.69962L9.00583 5.54192ZM8.86912 5.71477L8.62476 5.7147L8.62183 16.0155L8.86619 16.0156L9.11054 16.0156L9.11347 5.71484L8.86912 5.71477ZM8.86619 16.0156L9.00986 16.2132C9.19847 16.0761 9.3722 15.9441 9.55539 15.8168L9.41599 15.6161L9.2766 15.4154C9.08827 15.5462 8.89965 15.6891 8.72251 15.8179L8.86619 16.0156ZM9.41599 15.6161L9.54131 15.8259C11.0221 14.9413 12.887 14.7836 14.6513 14.6567L14.6338 14.413L14.6162 14.1693C12.8728 14.2946 10.8875 14.4524 9.29067 15.4064L9.41599 15.6161ZM14.6338 14.413L14.8781 14.413C14.8782 10.7688 14.9268 7.10652 14.8703 3.45611L14.626 3.45989L14.3816 3.46367C14.4381 7.10935 14.3895 10.7598 14.3894 14.413L14.6338 14.413ZM1.50095 3.46184L1.25667 3.45579C1.21881 4.9843 1.22715 6.51838 1.23511 8.04515L1.47947 8.04387L1.72382 8.0426C1.71585 6.51449 1.70759 4.98782 1.74523 3.46789L1.50095 3.46184ZM1.47947 8.04387L1.23511 8.04516C1.23841 8.6714 1.24185 9.29653 1.24195 9.92087L1.4863 9.92083L1.73066 9.92079C1.73056 9.29496 1.72711 8.6685 1.72382 8.04259L1.47947 8.04387ZM1.4863 9.92083L1.24195 9.92088C1.24204 10.3784 1.23612 10.8396 1.23025 11.3035L1.47458 11.3066L1.71892 11.3097C1.72479 10.8464 1.73076 10.382 1.73066 9.92078L1.4863 9.92083ZM1.47458 11.3066H1.23023V11.3105H1.47458H1.71894V11.3066H1.47458ZM1.47458 11.3105L1.23025 11.3074C1.21733 12.3321 1.20441 13.3717 1.25593 14.395L1.49998 14.3827L1.74402 14.3705C1.69341 13.3651 1.70597 12.3409 1.71892 11.3136L1.47458 11.3105ZM1.49998 14.3827L1.47902 14.6262C3.5149 14.8015 5.47983 15.0008 7.10443 16.193L7.249 15.996L7.39357 15.799C5.64215 14.5138 3.53792 14.3129 1.52094 14.1393L1.49998 14.3827ZM7.249 15.996L7.49335 15.9953C7.48338 12.5782 7.50212 9.16121 7.54997 5.74456L7.30564 5.74114L7.06131 5.73772C7.01342 9.15714 6.99466 12.5768 7.00464 15.9967L7.249 15.996ZM7.30564 5.74114L7.48304 5.5731C6.10627 4.11965 3.96567 3.27 1.99414 3.21465L1.98728 3.45891L1.98042 3.70317C3.83862 3.75534 5.85096 4.56077 7.12824 5.90918L7.30564 5.74114ZM1.98728 3.45891L1.99251 3.21461C1.82587 3.21105 1.65911 3.2122 1.49299 3.21762L1.50095 3.46184L1.50891 3.70607C1.66667 3.70093 1.82462 3.69984 1.98205 3.70321L1.98728 3.45891Z" fill="#010101"/>
<path d="M22.3605 3.01289C24.3179 2.97887 27.6145 2.92127 28.7003 3.33711C29.5294 3.65478 30.2347 4.27978 30.5959 5.09687C30.9518 5.90241 30.9771 6.96817 30.6544 7.78828C30.3097 8.66395 29.6773 9.03407 28.8595 9.38691C28.9226 9.40991 28.9869 9.43217 29.0509 9.45429C29.2261 9.51482 29.4026 9.57607 29.5675 9.65742C30.3227 10.0368 30.8999 10.6964 31.175 11.4953C31.5073 12.4751 31.3796 13.5727 30.9298 14.4904C30.5944 15.0683 30.1242 15.5156 29.5421 15.841C29.03 16.1274 28.5235 16.2418 27.9455 16.3186C27.0668 16.4354 21.9695 16.5121 21.3293 16.2941C21.243 16.2649 21.1569 16.232 21.1173 16.1467C21.023 15.9423 21.0101 15.629 21.0002 15.3879L20.9972 15.3215C20.9358 13.9513 20.956 12.5627 20.9757 11.1799C20.9845 10.5648 20.9927 9.95074 20.9943 9.34004C20.9958 8.7516 20.9883 8.15904 20.9806 7.56562C20.9657 6.40865 20.9512 5.24728 21.0041 4.10273C21.0156 3.85466 21.0367 3.57798 21.1261 3.34492C21.1945 3.16697 21.2818 3.10557 21.4494 3.02656C21.695 3.02488 22.0058 3.01906 22.3605 3.01289ZM27.2541 10.4504C26.5406 10.2803 24.2885 10.3981 23.4308 10.3986L23.4318 14.3088C24.4382 14.3108 26.6291 14.4378 27.4914 14.217C27.8099 14.1354 28.0626 14.0075 28.3048 13.7853C28.6928 13.3279 28.8941 12.8665 28.8361 12.2531C28.7844 11.7079 28.5514 11.2441 28.1271 10.8937C27.8737 10.6817 27.5748 10.53 27.2541 10.4504ZM24.1418 4.99629C23.8702 5.00504 23.6263 5.01258 23.4298 5.01289L23.4318 8.49336C23.6603 8.494 23.9386 8.50121 24.2423 8.50898C25.2463 8.53468 26.5269 8.56768 27.1955 8.39668C27.5069 8.31697 27.7648 8.19102 28.0138 7.98847C28.3406 7.59267 28.5187 7.14064 28.4767 6.62031C28.4399 6.16283 28.2216 5.71516 27.8566 5.43183C27.1693 4.89865 25.3674 4.95674 24.1418 4.99629Z" fill="#010101"/>
<path d="M42.5544 10.7985C42.178 7.97343 39.5822 5.98877 36.7575 6.3664C33.9349 6.74378 31.9522 9.33704 32.3279 12.1596C32.7037 14.9824 35.2959 16.9666 38.1189 16.5927C40.944 16.2179 42.9302 13.6233 42.5544 10.7985ZM37.0878 8.55167C37.6611 8.52313 38.1668 8.53295 38.6753 8.8428C39.246 9.19066 39.601 9.78494 39.7556 10.4233C39.9747 11.3283 39.9234 12.5745 39.4144 13.3794C39.0497 13.9561 38.5415 14.2112 37.8981 14.3529C37.2807 14.415 36.6681 14.3569 36.1391 14.002C35.5813 13.6277 35.2565 13.0168 35.1303 12.3697C34.951 11.451 35.0073 10.257 35.5624 9.47041C35.9434 8.93053 36.4512 8.66437 37.0878 8.55167Z" fill="#010101"/>
<path d="M53.6245 10.7671C53.2345 7.94283 50.6248 5.97239 47.8015 6.37044C44.9894 6.76694 43.0287 9.36391 43.4172 12.1771C43.8058 14.9896 46.3974 16.9582 49.2114 16.5775C52.0367 16.1953 54.0145 13.5914 53.6245 10.7671ZM48.1176 8.55215C48.6753 8.50631 49.2148 8.52361 49.7162 8.80452C50.3115 9.13797 50.6751 9.72335 50.8447 10.3697C51.0881 11.2984 51.0401 12.4962 50.5314 13.3334C50.1712 13.9267 49.6576 14.2028 49.0008 14.3504C48.386 14.43 47.7799 14.3616 47.2511 14.0142C46.6867 13.6432 46.3592 13.0392 46.2219 12.3906C46.0284 11.4743 46.091 10.2939 46.6256 9.49737C46.9882 8.95681 47.4931 8.68088 48.1176 8.55215Z" fill="#010101"/>
<path d="M55.6811 2.59575C55.7197 2.59213 55.7583 2.58935 55.7969 2.58798C56.1801 2.57454 57.0334 2.5003 57.2934 2.8511C57.4043 3.00055 57.4204 3.31279 57.4341 3.49703C57.4923 4.27536 57.4454 5.08945 57.4454 5.8711L57.4463 10.4737C57.9908 9.82664 58.6173 9.23413 59.1915 8.6116C59.7584 7.99676 60.3034 7.28969 60.9313 6.74203C61.0809 6.6116 61.1943 6.54249 61.3878 6.48971C61.789 6.38048 63.2425 6.29955 63.5484 6.51728C63.6266 6.57284 63.6931 6.68055 63.6872 6.77893C63.6598 7.21697 60.7657 10.0706 60.2613 10.5699C61.1894 11.9189 62.1253 13.2618 63.0695 14.5995C63.3045 14.9406 63.9726 15.6727 63.8866 16.0954C63.868 16.1873 63.7952 16.2679 63.7141 16.3124C63.2801 16.5514 61.6131 16.394 61.0926 16.2244C60.7207 15.8506 60.4177 15.31 60.1186 14.8756L58.3075 12.2351L57.4419 12.9872C57.4385 13.6797 57.6457 15.7171 57.2005 16.1814C57.0011 16.3896 56.7406 16.4057 56.4694 16.4082C56.055 16.4126 55.2535 16.4815 54.9505 16.1853C54.8728 15.3878 54.8987 14.5804 54.8982 13.7799L54.8967 10.3613L54.8972 5.67718C54.8972 4.84471 54.8674 3.99982 54.906 3.16857C54.9114 3.05675 54.9143 2.96023 54.9808 2.86459C55.1401 2.63406 55.4289 2.63001 55.6811 2.59575Z" fill="#010101"/>
<path d="M73.289 6.39989C73.8354 6.38802 74.9233 6.26716 75.4149 6.47081C75.5992 6.54709 75.6827 6.7352 75.7653 6.90742C76.1153 7.63692 76.3445 8.47741 76.626 9.23922C77.1161 10.5648 77.6439 11.8758 78.141 13.1982C78.4298 12.452 80.4247 6.89115 80.7517 6.61376C80.912 6.47799 81.2159 6.44882 81.4158 6.44295C81.8366 6.43064 82.6225 6.33768 82.9411 6.63164C83.0217 6.82112 83.011 6.92472 82.9646 7.12783C82.8013 7.8371 82.4539 8.57403 82.1992 9.25779L80.5625 13.6566L79.4561 16.6554C79.2337 17.2604 79.0378 17.908 78.7494 18.4837C78.5886 18.8043 78.3931 19.1048 78.1478 19.3673C77.5599 19.9972 76.7907 20.268 75.9437 20.2973C75.5806 20.31 74.958 20.3774 74.6779 20.1179C74.4991 19.7563 74.4839 18.9127 74.5993 18.5228C74.7117 18.143 75.543 18.2154 75.8782 18.0267C76.4178 17.7232 76.5649 17.1255 76.7041 16.5699C76.2707 15.2596 73.008 7.24747 73.0398 6.79438C73.0535 6.59763 73.1463 6.51327 73.289 6.39989Z" fill="#010101"/>
<path d="M67.9284 6.36116C68.2021 6.31942 68.5026 6.3308 68.7807 6.33364C69.8867 6.34468 71.1241 6.5778 71.9207 7.40974C72.2867 7.7922 72.5536 8.37001 72.5135 8.90886C72.5067 9.00069 72.4813 9.13255 72.4031 9.18787C72.0057 9.46863 70.9213 9.41356 70.4492 9.35007C70.0304 9.29363 70.0626 9.01359 69.8046 8.70707C69.5201 8.36976 69.1042 8.20399 68.6712 8.17257C68.1894 8.13757 67.58 8.29435 67.2212 8.63264C67.0629 8.78204 66.8958 9.16695 66.9217 9.38237C67.0331 10.3218 69.68 10.4426 70.4419 10.6344C71.0879 10.7971 71.7531 11.039 72.2692 11.474C72.7588 11.8864 72.9802 12.4485 73.0301 13.0769C73.0912 13.8516 72.8654 14.5934 72.3513 15.1799C71.4579 16.1988 70.1564 16.4984 68.8614 16.5932C67.8659 16.627 66.7946 16.4906 65.8993 16.0307C65.2498 15.6969 64.6633 15.1755 64.4468 14.4561C64.3579 14.1624 64.2987 13.8183 64.4551 13.5398C64.9077 13.185 66.1441 13.3237 66.6934 13.3438C66.8787 13.6258 66.992 13.9566 67.2452 14.1902C67.6718 14.5836 68.3013 14.7024 68.8648 14.6745C69.3256 14.6516 69.8163 14.5206 70.1252 14.1546C70.2957 13.9527 70.3944 13.6937 70.369 13.4274C70.2669 12.362 67.6425 12.3659 66.8303 12.1782C66.2438 12.0433 65.6456 11.8053 65.1706 11.429C64.6702 11.0317 64.3505 10.4973 64.2899 9.85692C64.2225 9.07551 64.4634 8.29875 64.9614 7.69285C65.7136 6.7813 66.7951 6.4719 67.9284 6.36116Z" fill="#010101"/>
</g>
<defs>
<clipPath id="clip0_297_111">
<rect width="83" height="21" fill="white" transform="translate(0 0.438477)"/>
</clipPath>
</defs>
</svg>
