<svg aria-hidden="true" style="position: absolute; width: 0; height: 0; overflow: hidden;" version="1.1" xmlns="http://www.w3.org/2000/svg" xmlns:xlink="http://www.w3.org/1999/xlink">
<defs>
<symbol id="icon-logo" viewBox="0 0 124 32">
<path d="M2.904 16.635c-0.001 0.094-0.002 0.189-0.004 0.283 0.001-0.093 0.002-0.185 0.004-0.278v-0.006z"></path>
<path d="M22.593 2.777c0.403-0.021 0.838-0.044 1.203 0.038 0.205 0.046 0.341 0.121 0.458 0.301 0.075 0.412 0.143 0.819 0.158 1.238 0.033 0.889 0.025 1.784 0.016 2.678-0.004 0.405-0.009 0.81-0.009 1.213v7.695c0 0.253 0.007 0.678 0.016 1.196 0.031 1.813 0.082 4.761-0.081 5.411-0.117 0.466-0.355 0.68-0.759 0.918-0.36 0.046-0.736 0.054-1.109 0.062-0.195 0.004-0.39 0.009-0.581 0.018-1.797 0.091-3.694 0.275-5.345 1.038-0.442 0.204-0.885 0.445-1.274 0.74-0.199 0.151-0.422 0.362-0.658 0.586-0.591 0.56-1.274 1.205-1.918 1.241-0.743 0.041-1.447-0.594-2.097-1.18-0.309-0.279-0.606-0.547-0.889-0.725-0.686-0.433-1.461-0.767-2.23-1.018-1.268-0.415-2.612-0.627-3.943-0.706-0.201-0.012-0.407-0.011-0.615-0.011-0.386 0.001-0.777 0.002-1.141-0.079-0.317-0.070-0.522-0.232-0.761-0.443-0.174-0.415-0.229-0.927-0.25-1.374-0.038-0.8-0.028-1.61-0.018-2.416 0.004-0.358 0.008-0.715 0.009-1.070l0.005-6.806-0.005-5.15c-0-0.225-0.009-0.469-0.019-0.722-0.027-0.684-0.056-1.43 0.093-2.013 0.082-0.32 0.267-0.462 0.536-0.634 2.952-0.191 6.177 0.422 8.772 1.865 0.862 0.479 1.639 1.065 2.424 1.658 0.441-0.329 0.885-0.657 1.339-0.968 2.442-1.669 5.351-2.493 8.296-2.567 0.12-0.003 0.247-0.010 0.377-0.017zM22.253 5.090c-0.358 0.003-0.736-0.020-1.091 0.027-2.423 0.219-5.532 1.106-7.178 3.037-0.070 0.082-0.137 0.167-0.201 0.253l-0.004 15.155c0.269-0.196 0.536-0.397 0.809-0.587 2.264-1.352 5.095-1.585 7.676-1.77 0-5.368 0.072-10.747-0.011-16.114zM2.943 5.093c-0.056 2.242-0.044 4.493-0.032 6.74 0.005 0.921 0.010 1.843 0.010 2.763 0 0.676-0.009 1.357-0.017 2.039v0.005c-0.019 1.51-0.037 3.027 0.038 4.519 2.982 0.257 5.975 0.551 8.459 2.374-0.015-5.029 0.014-10.059 0.084-15.087-1.952-2.061-5.008-3.279-7.825-3.358-0.238-0.005-0.477-0.003-0.716 0.004z"></path>
<path d="M22.593 2.777v0zM23.795 2.815v0zM24.253 3.116l0.354-0.065-0.013-0.071-0.040-0.061-0.301 0.196zM24.412 4.354v0zM24.428 7.032v0zM24.419 15.94h-0.36v0l0.36-0zM24.436 17.136v0zM24.355 22.547v0zM23.596 23.465l0.045 0.357 0.073-0.009 0.064-0.038-0.183-0.31zM22.487 23.527v0zM21.906 23.546l-0.018-0.359h-0l0.018 0.359zM16.562 24.583v0zM15.288 25.324v0zM14.63 25.91v0zM12.711 27.151l0.020 0.359h0l-0.020-0.359zM10.614 25.971v0zM9.725 25.246v0zM7.496 24.228l0.112-0.342h-0l-0.112 0.342zM3.553 23.522l-0.022 0.359h0l0.021-0.359zM2.938 23.511v0zM1.797 23.433l-0.078 0.351 0 0 0.077-0.351zM1.036 22.99l-0.331 0.139 0.032 0.075 0.061 0.054 0.238-0.269zM0.786 21.616v0zM0.767 19.2v0zM0.776 18.13v0zM0.781 11.324l0.36 0v-0.001l-0.359 0zM0.776 6.174v0zM0.757 5.452v0zM0.849 3.439v0zM1.385 2.805l-0.023-0.359-0.092 0.006-0.078 0.050 0.193 0.303zM10.156 4.671v0zM12.58 6.329l-0.217 0.287 0.215 0.163 0.216-0.161-0.215-0.288zM13.919 5.361v0zM22.216 2.795v0zM22.253 5.090l0.359-0.006-0.006-0.357-0.357 0.003 0.003 0.359zM21.163 5.117l0.032 0.358 0.015-0.002-0.047-0.356zM13.985 8.153l-0.274-0.233-0.001 0.001 0.275 0.232zM13.784 8.407l-0.287-0.216-0.072 0.096v0.12l0.36 0zM13.779 23.562l-0.36-0-0 0.706 0.571-0.415-0.211-0.291zM14.589 22.974l-0.184-0.309-0.011 0.006-0.010 0.007 0.205 0.295zM22.264 21.204l0.026 0.358 0.334-0.024 0-0.335h-0.36zM2.943 5.093l-0.012-0.359-0.339 0.011-0.008 0.339 0.359 0.009zM2.911 11.833v0zM2.92 14.596v0zM2.903 16.635l-0.36-0.005v0.005h0.36zM2.903 16.64l0.36 0.005v-0.005h-0.36zM2.941 21.16l-0.359 0.018 0.016 0.313 0.312 0.027 0.031-0.358zM11.4 23.534l-0.213 0.29 0.574 0.422-0.002-0.712-0.36 0.001zM11.484 8.447l0.36 0.005 0.002-0.146-0.1-0.106-0.261 0.247zM3.659 5.089l0.010-0.359-0.002-0-0.008 0.359zM22.593 2.777l0.019 0.359c0.416-0.022 0.798-0.039 1.105 0.030l0.078-0.351 0.078-0.351c-0.422-0.094-0.909-0.067-1.3-0.046l0.019 0.359zM23.795 2.815l-0.078 0.351c0.079 0.018 0.121 0.036 0.148 0.053 0.024 0.015 0.052 0.040 0.087 0.093l0.602-0.393c-0.082-0.126-0.181-0.229-0.305-0.308-0.121-0.077-0.25-0.119-0.376-0.147l-0.078 0.351zM24.253 3.116l-0.354 0.065c0.075 0.41 0.138 0.796 0.153 1.187l0.719-0.027c-0.017-0.447-0.088-0.876-0.164-1.29l-0.354 0.065zM24.412 4.354l-0.359 0.013c0.033 0.879 0.024 1.766 0.016 2.661l0.719 0.007c0.009-0.892 0.017-1.796-0.016-2.695l-0.359 0.013zM24.428 7.032l-0.36-0.003c-0.004 0.404-0.009 0.811-0.009 1.217h0.719c0-0.401 0.005-0.804 0.009-1.21l-0.36-0.003zM24.419 8.245h-0.36v7.695h0.719v-7.695h-0.36zM24.419 15.94l-0.36 0c0 0.256 0.007 0.685 0.016 1.202l0.719-0.012c-0.009-0.519-0.016-0.941-0.016-1.19l-0.36 0zM24.436 17.136l-0.359 0.006c0.016 0.907 0.036 2.094 0.032 3.134-0.002 0.52-0.010 1.001-0.027 1.39-0.018 0.401-0.045 0.671-0.075 0.793l0.697 0.175c0.051-0.203 0.079-0.545 0.096-0.936 0.018-0.403 0.026-0.895 0.028-1.419 0.004-1.049-0.017-2.243-0.033-3.149l-0.36 0.006zM24.355 22.547l-0.349-0.088c-0.047 0.186-0.112 0.302-0.193 0.395-0.087 0.099-0.208 0.189-0.399 0.301l0.365 0.619c0.213-0.125 0.412-0.261 0.574-0.446 0.168-0.19 0.28-0.414 0.351-0.694l-0.349-0.087zM23.596 23.465l-0.045-0.357c-0.339 0.043-0.695 0.051-1.071 0.060l0.008 0.359 0.008 0.36c0.369-0.008 0.764-0.017 1.146-0.065l-0.045-0.357zM22.487 23.527l-0.008-0.359c-0.194 0.004-0.394 0.009-0.591 0.019l0.036 0.718c0.185-0.009 0.375-0.014 0.571-0.018l-0.008-0.36zM21.906 23.546l-0.018-0.359c-1.799 0.091-3.759 0.276-5.477 1.070l0.302 0.653c1.582-0.731 3.418-0.914 5.212-1.005l-0.018-0.359zM16.562 24.583l-0.151-0.326c-0.455 0.21-0.924 0.463-1.341 0.781l0.435 0.572c0.36-0.274 0.778-0.502 1.207-0.7l-0.151-0.326zM15.288 25.324l-0.218-0.286c-0.218 0.166-0.456 0.391-0.688 0.611l0.494 0.522c0.241-0.229 0.449-0.424 0.629-0.561l-0.218-0.286zM14.63 25.91l-0.247-0.261c-0.299 0.283-0.6 0.567-0.903 0.787-0.308 0.224-0.571 0.344-0.788 0.356l0.040 0.718c0.427-0.024 0.828-0.244 1.17-0.492 0.347-0.252 0.683-0.57 0.975-0.847l-0.247-0.261zM12.711 27.151l-0.020-0.359c-0.262 0.014-0.546-0.089-0.868-0.298s-0.639-0.493-0.968-0.79l-0.482 0.534c0.32 0.289 0.68 0.615 1.059 0.86s0.818 0.439 1.299 0.412l-0.020-0.359zM10.614 25.971l0.241-0.267c-0.302-0.273-0.624-0.564-0.938-0.762l-0.384 0.608c0.251 0.159 0.524 0.403 0.84 0.688l0.241-0.267zM9.725 25.246l0.192-0.304c-0.717-0.453-1.521-0.798-2.31-1.056l-0.224 0.683c0.749 0.245 1.495 0.568 2.149 0.981l0.192-0.304zM7.496 24.228l0.112-0.342c-1.304-0.427-2.68-0.643-4.033-0.723l-0.021 0.359-0.021 0.359c1.308 0.078 2.62 0.286 3.852 0.689l0.112-0.342zM3.553 23.522l0.022-0.359c-0.214-0.013-0.432-0.012-0.638-0.011l0.002 0.719c0.21-0.001 0.405-0.001 0.592 0.010l0.022-0.359zM2.938 23.511l-0.001-0.36c-0.393 0.001-0.744 0-1.062-0.070l-0.155 0.702c0.41 0.090 0.841 0.088 1.22 0.087l-0.001-0.36zM1.797 23.433l0.078-0.351c-0.223-0.049-0.37-0.157-0.6-0.361l-0.477 0.538c0.247 0.218 0.509 0.433 0.921 0.525l0.078-0.351zM1.036 22.99l0.331-0.139c-0.148-0.353-0.201-0.811-0.222-1.252l-0.718 0.034c0.022 0.453 0.077 1.019 0.278 1.496l0.331-0.139zM0.786 21.616l0.359-0.017c-0.038-0.787-0.028-1.586-0.018-2.394l-0.719-0.009c-0.010 0.804-0.020 1.625 0.019 2.438l0.359-0.017zM0.767 19.2l0.359 0.005c0.004-0.358 0.008-0.717 0.009-1.074l-0.719-0c-0 0.353-0.004 0.708-0.009 1.066l0.359 0.004zM0.776 18.13l0.36 0 0.005-6.806-0.719-0.001-0.005 6.806 0.36 0zM0.781 11.324l0.36-0-0.005-5.15-0.719 0.001 0.005 5.15 0.36-0zM0.776 6.174l0.36-0c-0-0.233-0.010-0.485-0.020-0.736l-0.718 0.028c0.010 0.254 0.019 0.492 0.019 0.708l0.359-0zM0.757 5.452l0.359-0.014c-0.027-0.701-0.051-1.388 0.082-1.91l-0.697-0.178c-0.164 0.645-0.13 1.448-0.104 2.116l0.359-0.014zM0.849 3.439l0.348 0.089c0.046-0.18 0.128-0.258 0.381-0.42l-0.387-0.606c-0.284 0.181-0.573 0.387-0.691 0.848l0.348 0.089zM1.385 2.805l0.023 0.359c2.893-0.188 6.047 0.415 8.573 1.821l0.35-0.628c-2.662-1.481-5.957-2.105-8.97-1.91l0.023 0.359zM10.156 4.671l-0.175 0.314c0.836 0.465 1.594 1.036 2.381 1.631l0.434-0.574c-0.782-0.591-1.578-1.192-2.465-1.686l-0.175 0.314zM12.58 6.329l0.215 0.288c0.441-0.329 0.88-0.653 1.327-0.959l-0.406-0.594c-0.461 0.315-0.91 0.647-1.351 0.976l0.215 0.288zM13.919 5.361l0.203 0.297c2.378-1.625 5.217-2.432 8.102-2.504l-0.018-0.719c-3.006 0.075-5.984 0.916-8.49 2.629l0.203 0.297zM22.216 2.795l0.009 0.359c0.127-0.003 0.26-0.011 0.387-0.018l-0.038-0.718c-0.133 0.007-0.253 0.014-0.367 0.017l0.009 0.359zM22.253 5.090l-0.003-0.359c-0.323 0.003-0.751-0.021-1.135 0.030l0.095 0.713c0.325-0.043 0.653-0.021 1.046-0.024l-0.003-0.359zM21.163 5.117l-0.032-0.358c-1.239 0.112-2.655 0.395-3.976 0.899-1.319 0.503-2.567 1.236-3.443 2.263l0.547 0.466c0.77-0.903 1.899-1.579 3.152-2.057 1.25-0.477 2.6-0.747 3.785-0.854l-0.032-0.358zM13.985 8.153l-0.275-0.232c-0.074 0.088-0.146 0.178-0.214 0.269l0.575 0.432c0.061-0.081 0.124-0.16 0.189-0.237l-0.275-0.232zM13.784 8.407l-0.36-0-0.004 15.155 0.719 0 0.004-15.155-0.36-0zM13.779 23.562l0.211 0.291c0.277-0.201 0.534-0.396 0.803-0.583l-0.41-0.591c-0.277 0.193-0.554 0.402-0.816 0.592l0.211 0.291zM14.589 22.974l0.184 0.309c2.178-1.301 4.922-1.534 7.517-1.721l-0.026-0.358-0.026-0.359c-2.565 0.184-5.485 0.417-7.834 1.82l0.184 0.309zM22.264 21.204h0.36c0-5.362 0.072-10.749-0.011-16.12l-0.719 0.011c0.083 5.364 0.011 10.734 0.011 16.109l0.36 0zM2.943 5.093l-0.359-0.009c-0.056 2.249-0.044 4.505-0.032 6.751l0.719-0.004c-0.012-2.248-0.023-4.493 0.032-6.73l-0.359-0.009zM2.911 11.833l-0.36 0.002c0.005 0.922 0.010 1.842 0.010 2.761l0.719-0c-0-0.921-0.005-1.843-0.010-2.765l-0.36 0.002zM2.92 14.596h-0.36c0 0.673-0.009 1.352-0.017 2.034l0.719 0.009c0.009-0.682 0.017-1.365 0.017-2.043l-0.36 0zM2.903 16.635h-0.36v0.005h0.719v-0.005h-0.36zM2.903 16.64l-0.36-0.005c-0.019 1.508-0.038 3.037 0.038 4.542l0.718-0.036c-0.074-1.479-0.056-2.985-0.037-4.497l-0.359-0.005zM2.941 21.16l-0.031 0.358c2.995 0.258 5.887 0.551 8.277 2.306l0.425-0.58c-2.577-1.891-5.673-2.187-8.641-2.442l-0.031 0.358zM11.4 23.534l0.36-0.001c-0.015-5.027 0.014-10.055 0.084-15.081l-0.719-0.010c-0.070 5.031-0.099 10.062-0.084 15.093l0.36-0.001zM11.484 8.447l0.261-0.247c-2.026-2.139-5.176-3.388-8.076-3.47l-0.020 0.719c2.734 0.077 5.695 1.262 7.575 3.246l0.261-0.247zM3.659 5.089l0.008-0.359c-0.245-0.005-0.49-0.004-0.735 0.004l0.023 0.719c0.232-0.008 0.464-0.009 0.696-0.004l0.008-0.359z"></path>
<path d="M33.633 4.432c2.88-0.050 7.731-0.135 9.329 0.477 1.22 0.467 2.258 1.387 2.789 2.589 0.523 1.185 0.561 2.753 0.086 3.959-0.507 1.288-1.438 1.833-2.641 2.352 0.093 0.034 0.187 0.066 0.281 0.098 0.258 0.089 0.517 0.18 0.76 0.3 1.111 0.558 1.961 1.528 2.365 2.704 0.489 1.442 0.302 3.056-0.36 4.406-0.494 0.851-1.186 1.508-2.043 1.987-0.754 0.421-1.499 0.591-2.349 0.704-1.294 0.172-8.792 0.284-9.734-0.037-0.127-0.043-0.253-0.091-0.311-0.217-0.139-0.301-0.158-0.762-0.172-1.116l-0.004-0.098c-0.090-2.016-0.061-4.059-0.032-6.094 0.013-0.905 0.027-1.808 0.029-2.707 0.002-0.866-0.009-1.737-0.020-2.61-0.022-1.702-0.044-3.411 0.033-5.095 0.017-0.365 0.047-0.772 0.179-1.115 0.101-0.262 0.23-0.353 0.476-0.469 0.361-0.002 0.819-0.010 1.34-0.019zM40.832 15.375c-1.050-0.25-4.365-0.077-5.626-0.076l0.001 5.752c1.48 0.003 4.706 0.19 5.974-0.135 0.469-0.12 0.841-0.308 1.197-0.635 0.571-0.673 0.867-1.352 0.781-2.254-0.076-0.802-0.42-1.484-1.044-2-0.373-0.312-0.812-0.535-1.283-0.652zM41.72 7.992c-1.011-0.785-3.663-0.699-5.467-0.641-0.399 0.013-0.757 0.024-1.046 0.025l0.002 5.121c0.336 0.001 0.746 0.012 1.193 0.024 1.477 0.038 3.361 0.086 4.345-0.166 0.458-0.117 0.837-0.303 1.204-0.601 0.481-0.582 0.743-1.247 0.681-2.012-0.054-0.673-0.375-1.332-0.912-1.749z"></path>
<path d="M63.345 15.886c-0.554-4.156-4.373-7.076-8.529-6.521-4.153 0.555-7.070 4.371-6.517 8.523s4.367 7.072 8.52 6.522c4.157-0.552 7.079-4.369 6.526-8.525zM55.302 12.581c0.843-0.042 1.588-0.028 2.336 0.428 0.84 0.512 1.362 1.386 1.589 2.325 0.322 1.331 0.247 3.165-0.502 4.349-0.537 0.848-1.284 1.224-2.231 1.432-0.908 0.091-1.81 0.006-2.588-0.516-0.821-0.551-1.299-1.45-1.484-2.402-0.264-1.352-0.181-3.108 0.636-4.266 0.561-0.794 1.308-1.186 2.244-1.352z"></path>
<path d="M79.632 15.84c-0.574-4.155-4.413-7.054-8.567-6.469-4.137 0.583-7.022 4.404-6.45 8.543s4.385 7.034 8.525 6.474c4.157-0.562 7.067-4.393 6.493-8.549zM71.53 12.581c0.82-0.067 1.614-0.042 2.352 0.371 0.876 0.491 1.411 1.352 1.66 2.303 0.358 1.366 0.288 3.129-0.461 4.36-0.53 0.873-1.286 1.279-2.252 1.496-0.905 0.117-1.796 0.017-2.574-0.495-0.83-0.546-1.312-1.434-1.514-2.389-0.285-1.348-0.193-3.085 0.594-4.257 0.533-0.795 1.276-1.201 2.195-1.391z"></path>
<path d="M82.658 3.819c0.057-0.005 0.114-0.009 0.17-0.011 0.564-0.020 1.819-0.129 2.202 0.387 0.163 0.22 0.187 0.679 0.207 0.95 0.086 1.145 0.017 2.343 0.017 3.493l0.001 6.772c0.801-0.952 1.723-1.824 2.568-2.74 0.834-0.905 1.636-1.945 2.56-2.751 0.22-0.192 0.387-0.294 0.672-0.371 0.59-0.161 2.729-0.28 3.179 0.041 0.115 0.082 0.213 0.24 0.204 0.385-0.040 0.644-4.298 4.843-5.040 5.578 1.365 1.985 2.742 3.961 4.132 5.929 0.346 0.502 1.329 1.579 1.202 2.201-0.027 0.135-0.134 0.254-0.254 0.319-0.638 0.352-3.091 0.12-3.857-0.129-0.547-0.55-0.993-1.345-1.433-1.984l-2.665-3.885-1.273 1.107c-0.005 1.019 0.3 4.017-0.355 4.7-0.293 0.306-0.677 0.33-1.076 0.334-0.61 0.006-1.789 0.108-2.235-0.328-0.114-1.173-0.076-2.361-0.077-3.539l-0.002-5.030 0.001-6.892c0-1.225-0.044-2.468 0.013-3.691 0.008-0.165 0.012-0.307 0.11-0.447 0.234-0.339 0.659-0.345 1.030-0.396z"></path>
<path d="M108.562 9.415c0.804-0.017 2.404-0.195 3.128 0.104 0.271 0.112 0.394 0.389 0.515 0.642 0.515 1.073 0.852 2.31 1.267 3.431 0.721 1.95 1.497 3.879 2.229 5.825 0.425-1.098 3.36-9.279 3.841-9.688 0.235-0.2 0.683-0.243 0.977-0.251 0.619-0.018 1.775-0.155 2.244 0.278 0.118 0.279 0.103 0.431 0.034 0.73-0.241 1.043-0.751 2.128-1.126 3.134l-2.409 6.472-1.628 4.412c-0.327 0.89-0.616 1.843-1.039 2.69-0.236 0.472-0.524 0.914-0.885 1.3-0.865 0.927-1.997 1.325-3.243 1.368-0.534 0.019-1.45 0.118-1.863-0.264-0.263-0.532-0.285-1.773-0.116-2.347 0.166-0.559 1.389-0.452 1.882-0.73 0.793-0.447 1.010-1.326 1.215-2.143-0.638-1.928-5.438-13.716-5.391-14.382 0.020-0.289 0.157-0.414 0.367-0.58z"></path>
<path d="M100.677 9.358c0.403-0.061 0.845-0.045 1.254-0.040 1.627 0.016 3.448 0.359 4.62 1.583 0.538 0.563 0.931 1.413 0.872 2.206-0.010 0.135-0.047 0.329-0.163 0.41-0.585 0.413-2.18 0.332-2.875 0.239-0.616-0.083-0.569-0.495-0.948-0.946-0.419-0.496-1.030-0.74-1.667-0.786-0.709-0.052-1.606 0.179-2.133 0.677-0.233 0.22-0.479 0.786-0.441 1.103 0.164 1.382 4.058 1.56 5.179 1.842 0.951 0.239 1.929 0.595 2.688 1.235 0.72 0.607 1.046 1.434 1.119 2.358 0.090 1.14-0.242 2.231-0.999 3.094-1.314 1.499-3.229 1.94-5.135 2.079-1.465 0.050-3.041-0.151-4.358-0.828-0.956-0.491-1.818-1.258-2.137-2.317-0.131-0.432-0.218-0.938 0.012-1.348 0.666-0.522 2.485-0.318 3.293-0.288 0.272 0.415 0.439 0.902 0.812 1.245 0.628 0.579 1.554 0.754 2.383 0.712 0.678-0.034 1.4-0.226 1.854-0.765 0.251-0.297 0.396-0.678 0.359-1.070-0.15-1.567-4.011-1.562-5.207-1.838-0.863-0.198-1.743-0.549-2.442-1.102-0.736-0.584-1.207-1.371-1.296-2.313-0.099-1.15 0.255-2.292 0.988-3.184 1.107-1.341 2.698-1.796 4.365-1.959z"></path>
</symbol>
<symbol id="icon-x" viewBox="0 0 32 32">
<path d="M21.589 8.459l-5.657 5.656-5.656-5.656-1.885 1.885 5.656 5.656-5.656 5.656 1.885 1.885 5.656-5.656 5.657 5.656 1.885-1.885-5.656-5.656 5.656-5.656-1.885-1.885z"></path>
</symbol>
<symbol id="icon-chevron-up" viewBox="0 0 32 32">
<path d="M8.391 19.057l1.885 1.885 5.724-5.724 5.724 5.724 1.885-1.885-7.609-7.609-7.609 7.609z"></path>
</symbol>
<symbol id="icon-check" viewBox="0 0 32 32">
<path d="M13.333 20.781l-4.391-4.391-1.885 1.885 6.276 6.276 12.943-12.943-1.885-1.885-11.057 11.057z"></path>
</symbol>
<symbol id="icon-star" viewBox="0 0 32 32">
<path d="M8.688 19.097l-1.987 8.603c-0.062 0.261-0.043 0.533 0.053 0.783s0.265 0.465 0.485 0.617c0.22 0.152 0.481 0.235 0.749 0.236s0.53-0.078 0.752-0.227l7.26-4.84 7.26 4.84c0.227 0.151 0.495 0.228 0.768 0.222s0.537-0.095 0.757-0.256c0.22-0.161 0.386-0.385 0.475-0.642s0.097-0.536 0.023-0.799l-2.439-8.533 6.048-5.443c0.194-0.174 0.332-0.402 0.398-0.654s0.056-0.518-0.027-0.765-0.238-0.464-0.444-0.624c-0.206-0.16-0.454-0.256-0.714-0.277l-7.601-0.605-3.289-7.281c-0.105-0.234-0.275-0.434-0.491-0.573s-0.467-0.214-0.724-0.214c-0.257 0-0.508 0.074-0.724 0.214s-0.386 0.339-0.491 0.573l-3.289 7.281-7.601 0.604c-0.255 0.020-0.5 0.114-0.703 0.269s-0.358 0.366-0.445 0.607c-0.087 0.241-0.103 0.502-0.046 0.752s0.185 0.478 0.369 0.656l5.619 5.476zM12.492 13.329c0.238-0.019 0.467-0.101 0.662-0.239s0.35-0.325 0.448-0.543l2.399-5.308 2.399 5.308c0.098 0.218 0.252 0.405 0.448 0.543s0.424 0.22 0.662 0.239l5.296 0.42-4.361 3.925c-0.379 0.341-0.529 0.867-0.391 1.357l1.671 5.847-4.981-3.321c-0.219-0.147-0.476-0.225-0.739-0.225s-0.521 0.078-0.739 0.225l-5.205 3.471 1.4-6.061c0.051-0.223 0.044-0.455-0.020-0.675s-0.184-0.419-0.348-0.579l-4.051-3.949 5.453-0.435z"></path>
</symbol>
<symbol id="icon-chevron-right" viewBox="0 0 32 32">
<path d="M12.943 22.599l7.609-7.609-7.609-7.609-1.885 1.885 5.724 5.724-5.724 5.724 1.885 1.885z"></path>
</symbol>
<symbol id="icon-plus" viewBox="0 0 32 32">
<path d="M25.333 14.667h-8v-8h-2.667v8h-8v2.667h8v8h2.667v-8h8v-2.667z"></path>
</symbol>
<symbol id="icon-phone" viewBox="0 0 32 32">
<path d="M23.61 16.391c-0.124-0.124-0.271-0.222-0.432-0.289s-0.335-0.102-0.51-0.102c-0.175 0-0.348 0.035-0.51 0.102s-0.309 0.165-0.432 0.289l-2.125 2.125c-0.985-0.293-2.824-0.96-3.989-2.125s-1.832-3.004-2.125-3.989l2.125-2.125c0.124-0.124 0.222-0.271 0.289-0.432s0.102-0.335 0.102-0.51c0-0.175-0.035-0.348-0.102-0.51s-0.165-0.309-0.289-0.432l-5.333-5.333c-0.124-0.124-0.271-0.222-0.432-0.289s-0.335-0.102-0.51-0.102c-0.175 0-0.348 0.035-0.51 0.102s-0.309 0.165-0.432 0.289l-3.616 3.616c-0.507 0.507-0.792 1.203-0.781 1.913 0.031 1.899 0.533 8.493 5.731 13.691s11.792 5.699 13.692 5.731h0.037c0.704 0 1.369-0.277 1.873-0.781l3.616-3.616c0.124-0.124 0.222-0.271 0.289-0.432s0.102-0.335 0.102-0.51c0-0.175-0.035-0.349-0.102-0.51s-0.165-0.309-0.289-0.432l-5.333-5.335zM23.44 25.34c-1.664-0.028-7.357-0.475-11.831-4.949-4.488-4.488-4.923-10.201-4.949-11.832l2.673-2.673 3.448 3.448-1.724 1.724c-0.157 0.157-0.272 0.35-0.335 0.562s-0.073 0.437-0.027 0.654c0.032 0.153 0.815 3.789 3.028 6.003s5.849 2.996 6.003 3.028c0.217 0.047 0.442 0.038 0.654-0.025s0.406-0.179 0.562-0.336l1.725-1.724 3.448 3.448-2.675 2.673z"></path>
</symbol>
<symbol id="icon-envelope" viewBox="0 0 32 32">
<path d="M26.667 5.333h-21.333c-1.471 0-2.667 1.196-2.667 2.667v16c0 1.471 1.196 2.667 2.667 2.667h21.333c1.471 0 2.667-1.196 2.667-2.667v-16c0-1.471-1.196-2.667-2.667-2.667zM26.667 8v0.681l-10.667 8.297-10.667-8.296v-0.683h21.333zM5.333 24v-11.941l9.848 7.66c0.233 0.183 0.522 0.283 0.819 0.283s0.585-0.1 0.819-0.283l9.848-7.66 0.003 11.941h-21.336z"></path>
</symbol>
<symbol id="icon-minus" viewBox="0 0 32 32">
<path d="M6.667 14.667h18.667v2.667h-18.667v-2.667z"></path>
</symbol>
<symbol id="icon-up-arrow-alt" viewBox="0 0 32 32">
<path d="M14.667 11.219v12.781h2.667v-12.781l5.724 5.724 1.885-1.885-8.943-8.943-8.943 8.943 1.885 1.885 5.724-5.724z"></path>
</symbol>
<symbol id="icon-left-arrow-alt" viewBox="0 0 32 32">
<path d="M16.943 23.057l-5.724-5.724h12.781v-2.667h-12.781l5.724-5.724-1.885-1.885-8.943 8.943 8.943 8.943 1.885-1.885z"></path>
</symbol>
<symbol id="icon-right-arrow-alt" viewBox="0 0 32 32">
<path d="M15.057 23.057l1.885 1.885 8.943-8.943-8.943-8.943-1.885 1.885 5.724 5.724h-12.781v2.667h12.781l-5.724 5.724z"></path>
</symbol>
<symbol id="icon-down-arrow-alt" viewBox="0 0 32 32">
<path d="M24.943 16.943l-1.885-1.885-5.724 5.724v-12.781h-2.667v12.781l-5.724-5.724-1.885 1.885 8.943 8.943 8.943-8.943z"></path>
</symbol>
<symbol id="icon-map" viewBox="0 0 32 32">
<path d="M16 18.667c2.941 0 5.333-2.392 5.333-5.333s-2.392-5.333-5.333-5.333c-2.941 0-5.333 2.392-5.333 5.333s2.392 5.333 5.333 5.333zM16 10.667c1.471 0 2.667 1.196 2.667 2.667s-1.196 2.667-2.667 2.667c-1.471 0-2.667-1.196-2.667-2.667s1.196-2.667 2.667-2.667z"></path>
<path d="M15.227 29.085c0.226 0.161 0.496 0.248 0.773 0.248s0.548-0.087 0.773-0.248c0.405-0.287 9.932-7.165 9.893-15.752 0-5.881-4.785-10.667-10.667-10.667s-10.667 4.785-10.667 10.66c-0.039 8.593 9.488 15.472 9.893 15.759zM16 5.333c4.412 0 8 3.588 8 8.007 0.028 5.917-5.851 11.231-8 12.973-2.148-1.744-8.028-7.059-8-12.98 0-4.412 3.588-8 8-8z"></path>
</symbol>
<symbol id="icon-chevron-left" viewBox="0 0 32 32">
<path d="M17.724 8.391l-7.609 7.609 7.609 7.609 1.885-1.885-5.724-5.724 5.724-5.724-1.885-1.885z"></path>
</symbol>
<symbol id="icon-menu-alt-right" viewBox="0 0 32 32">
<path d="M5.333 8h21.333v2.667h-21.333v-2.667zM10.667 14.667h16v2.667h-16v-2.667zM17.333 21.333h9.333v2.667h-9.333v-2.667z"></path>
</symbol>
<symbol id="icon-chevron-down" viewBox="0 0 32 32">
<path d="M21.724 11.057l-5.724 5.724-5.724-5.724-1.885 1.885 7.609 7.609 7.609-7.609-1.885-1.885z"></path>
</symbol>
</defs>
</svg>
